<svg width="1920" height="217" viewBox="0 0 1920 217" fill="none" xmlns="http://www.w3.org/2000/svg">
<g opacity="0.5">
<path d="M65.9537 6.24574C93.8784 6.24574 118.004 10.8065 138.52 20.1183C159.036 29.43 174.993 42.5426 186.011 59.8359C197.219 76.9391 202.728 97.2729 202.728 120.457C202.728 143.642 197.219 163.786 186.011 180.699C174.803 197.802 159.036 210.914 138.52 220.036C118.004 229.348 93.6885 233.909 65.9537 233.909H12.1937V314.484H-75V165.116H60.6346C78.4912 165.116 91.9788 161.315 101.097 153.524C110.215 145.732 114.775 134.71 114.775 120.267C114.775 105.825 110.215 94.8025 101.097 86.821C91.9788 78.8394 78.4912 74.8487 60.6346 74.8487H-75V6.05566H65.9537V6.24574Z" fill="#F0F4F4"/>
<path d="M422.501 254.644H292.185L268.06 314.505H179.156L315.171 6.2666H401.035L537.429 314.505H446.816L422.691 254.644H422.501ZM397.045 190.411L357.343 91.7828L317.64 190.411H396.855H397.045Z" fill="#F0F4F4"/>
<path d="M701.952 320.781C669.658 320.781 640.783 313.939 614.948 300.257C589.303 286.574 569.166 267.571 554.349 243.246C539.722 218.921 532.313 191.366 532.313 160.39C532.313 129.415 539.722 102.049 554.349 77.5347C568.976 53.2101 589.113 34.2065 614.948 20.5239C640.593 6.84133 669.658 0 701.952 0C730.066 0 755.521 4.94095 778.127 15.0129C800.733 25.0848 819.539 39.3374 834.547 58.151L779.077 108.32C759.131 84.1859 734.815 72.2137 706.511 72.2137C689.794 72.2137 674.977 75.8243 661.869 83.2357C648.761 90.6471 638.694 100.909 631.475 114.212C624.256 127.514 620.647 142.907 620.647 160.2C620.647 177.494 624.256 192.886 631.475 206.189C638.694 219.492 648.761 229.943 661.869 237.165C674.977 244.576 689.794 248.187 706.511 248.187C735.005 248.187 759.131 236.215 779.077 212.08L834.547 262.25C819.539 281.063 800.733 295.506 778.127 305.388C755.521 315.46 730.066 320.401 701.952 320.401V320.781Z" fill="#F0F4F4"/>
<path d="M1023.93 320.781C991.637 320.781 962.762 313.939 936.927 300.257C911.282 286.574 891.146 267.571 876.329 243.246C861.702 218.921 854.293 191.366 854.293 160.39C854.293 129.415 861.702 102.049 876.329 77.5347C890.956 53.2101 911.092 34.2065 936.927 20.5239C962.572 6.84133 991.637 0 1023.93 0C1052.05 0 1077.5 4.94095 1100.11 15.0129C1122.71 25.0848 1141.52 39.3374 1156.53 58.151L1101.06 108.32C1081.11 84.1859 1056.98 72.2137 1028.49 72.2137C1011.77 72.2137 996.956 75.8243 983.849 83.2357C970.741 90.6471 960.673 100.909 953.454 114.212C946.236 127.514 942.626 142.907 942.626 160.2C942.626 177.494 946.236 192.886 953.454 206.189C960.673 219.492 970.741 229.943 983.849 237.165C996.956 244.576 1011.77 248.187 1028.49 248.187C1056.98 248.187 1081.11 236.215 1101.06 212.08L1156.53 262.25C1141.52 281.063 1122.71 295.506 1100.11 305.388C1077.5 315.46 1052.05 320.401 1023.93 320.401V320.781Z" fill="#F0F4F4"/>
<path d="M1420.01 153.353C1438.24 159.244 1452.11 168.366 1461.61 180.718C1471.11 193.07 1475.86 208.273 1475.86 226.517C1475.86 253.882 1465.22 275.356 1443.94 291.129C1422.67 306.902 1392.46 314.693 1353.52 314.693H1195.47V129.789H1336.8C1361.5 129.789 1373.85 119.716 1373.85 99.3826C1373.85 79.0488 1361.5 68.9769 1336.8 68.9769H1195.47V6.45508H1345.16C1382.21 6.45508 1410.89 13.4865 1431.22 27.3591C1451.54 41.2318 1461.8 60.9954 1461.8 86.6503C1461.8 101.663 1458.19 114.776 1450.97 126.368C1443.75 137.77 1433.5 146.892 1420.01 153.733V153.353ZM1350.1 251.982C1375.37 251.982 1387.9 241.34 1387.9 219.866C1387.9 198.391 1375.37 188.51 1350.1 188.51H1281.33V251.982H1350.1Z" fill="#F0F4F4"/>
<path d="M1765.36 247.232V314.695H1518.03V125.799H1741.23V190.982H1604.27V247.422H1765.36V247.232ZM1518.03 73.7293V6.2666H1759.66V73.7293H1518.03Z" fill="#F0F4F4"/>
<path d="M2079 75.4397H1984.78V314.695H1898.91V75.4397H1804.31V6.2666H2079V75.4397Z" fill="#F0F4F4"/>
</g>
</svg>
