<svg width="1946" height="291" viewBox="0 0 1946 291" fill="none" xmlns="http://www.w3.org/2000/svg">
<g style="mix-blend-mode:soft-light" opacity="0.2">
<path d="M127.343 6.13071C152.571 6.13071 174.367 10.2511 192.902 18.6637C211.437 27.0762 225.853 38.9226 235.807 54.5459C245.932 69.9976 250.909 88.3679 250.909 109.313C250.909 130.259 245.932 148.458 235.807 163.738C225.681 179.189 211.437 191.036 192.902 199.277C174.367 207.689 152.399 211.81 127.343 211.81H78.7739V284.604H0V149.66H122.537C138.669 149.66 150.855 146.226 159.092 139.187C167.33 132.148 171.449 122.19 171.449 109.142C171.449 96.0938 167.33 86.136 159.092 78.9252C150.855 71.7144 138.669 68.1091 122.537 68.1091H0V5.95898H127.343V6.13071Z" fill="#F0F4F4"/>
<path d="M449.46 230.542H331.728L309.933 284.623H229.614L352.495 6.14941H430.067L553.291 284.623H471.428L449.632 230.542H449.46ZM426.463 172.512L390.594 83.4078L354.726 172.512H426.291H426.463Z" fill="#F0F4F4"/>
<path d="M701.926 290.293C672.751 290.293 646.664 284.112 623.324 271.751C600.155 259.39 581.963 242.221 568.577 220.245C555.362 198.27 548.669 173.375 548.669 145.391C548.669 117.406 555.362 92.6833 568.577 70.5359C581.792 48.5602 599.983 31.3917 623.324 19.0303C646.493 6.66898 672.751 0.488281 701.926 0.488281C727.326 0.488281 750.323 4.95211 770.746 14.0514C791.169 23.1508 808.159 36.0271 821.717 53.0239L771.604 98.3488C753.584 76.5448 731.616 65.7287 706.045 65.7287C690.942 65.7287 677.556 68.9907 665.714 75.6864C653.872 82.3821 644.777 91.6532 638.255 103.671C631.733 115.689 628.472 129.596 628.472 145.219C628.472 160.842 631.733 174.749 638.255 186.767C644.777 198.785 653.872 208.227 665.714 214.751C677.556 221.447 690.942 224.709 706.045 224.709C731.788 224.709 753.584 213.893 771.604 192.089L821.717 237.414C808.159 254.411 791.169 267.459 770.746 276.387C750.323 285.486 727.326 289.95 701.926 289.95V290.293Z" fill="#F0F4F4"/>
<path d="M992.814 290.293C963.638 290.293 937.552 284.112 914.211 271.751C891.043 259.39 872.851 242.221 859.465 220.245C846.25 198.27 839.557 173.375 839.557 145.391C839.557 117.406 846.25 92.6833 859.465 70.5359C872.679 48.5602 890.871 31.3917 914.211 19.0303C937.38 6.66898 963.638 0.488281 992.814 0.488281C1018.21 0.488281 1041.21 4.95211 1061.63 14.0514C1082.06 23.1508 1099.05 36.0271 1112.61 53.0239L1062.49 98.3488C1044.47 76.5448 1022.68 65.7287 996.933 65.7287C981.83 65.7287 968.444 68.9907 956.602 75.6864C944.76 82.3821 935.664 91.6532 929.143 103.671C922.621 115.689 919.36 129.596 919.36 145.219C919.36 160.842 922.621 174.749 929.143 186.767C935.664 198.785 944.76 208.227 956.602 214.751C968.444 221.447 981.83 224.709 996.933 224.709C1022.68 224.709 1044.47 213.893 1062.49 192.089L1112.61 237.414C1099.05 254.411 1082.06 267.459 1061.63 276.387C1041.21 285.486 1018.21 289.95 992.814 289.95V290.293Z" fill="#F0F4F4"/>
<path d="M1350.64 139.033C1367.12 144.355 1379.65 152.596 1388.23 163.756C1396.81 174.915 1401.1 188.65 1401.1 205.132C1401.1 229.855 1391.49 249.255 1372.27 263.505C1353.05 277.755 1325.76 284.794 1290.58 284.794H1147.79V117.744H1275.47C1297.78 117.744 1308.94 108.645 1308.94 90.2744C1308.94 71.9041 1297.78 62.8048 1275.47 62.8048H1147.79V6.32031H1283.02C1316.49 6.32031 1342.41 12.6728 1360.77 25.2058C1379.13 37.7388 1388.4 55.594 1388.4 78.7715C1388.4 92.3346 1385.14 104.181 1378.62 114.654C1372.1 124.955 1362.83 133.196 1350.64 139.376V139.033ZM1287.49 228.138C1310.31 228.138 1321.64 218.523 1321.64 199.123C1321.64 179.722 1310.31 170.795 1287.49 170.795H1225.36V228.138H1287.49Z" fill="#F0F4F4"/>
<path d="M1662.65 223.846V284.795H1439.2V114.139H1640.85V173.028H1517.11V224.018H1662.65V223.846ZM1439.2 67.0976V6.14941H1657.5V67.0976H1439.2Z" fill="#F0F4F4"/>
<path d="M1946 68.6428H1860.88V284.795H1783.3V68.6428H1697.84V6.14941H1946V68.6428Z" fill="#F0F4F4"/>
</g>
</svg>
