<svg width="168" height="48" viewBox="0 0 168 48" fill="none" xmlns="http://www.w3.org/2000/svg">
<path d="M27.9901 24.0005C34.615 24.0005 39.9856 18.6279 39.9856 12.0005C39.9856 5.37307 34.615 0.000488281 27.9901 0.000488281C21.3652 0.000488281 15.9946 5.37307 15.9946 12.0005C15.9946 18.6279 21.3652 24.0005 27.9901 24.0005Z" fill="#FCBD16"/>
<path fill-rule="evenodd" clip-rule="evenodd" d="M0 16L15.994 0V48H0V16Z" fill="white"/>
<path d="M53.0057 45.3269H52.4028V47.5809H51.4613V45.3269H50.8478L49.4727 47.5809H48.2773L50.1391 44.8295L48.4466 42.3745H49.589L50.869 44.5227H51.4613V42.3745H52.4028V44.5227H52.9951L54.2857 42.3745H55.4281L53.725 44.8295L55.5868 47.5809H54.3914L53.0057 45.3269Z" fill="#FCBD16"/>
<path d="M62.7794 42.3745H63.7208V47.5809H62.7794V43.8877L62.7476 43.8772L60.4522 47.5809H59.5107V42.3745H60.4522V46.0676L60.4839 46.0782L62.7794 42.3745Z" fill="#FCBD16"/>
<path d="M72.4277 42.3745V47.5809H71.4757V43.1258H69.7198V44.5967C69.7198 45.6232 69.5823 46.3745 69.3072 46.8613C69.0322 47.3375 68.5668 47.5809 67.9109 47.5809H67.6465L67.6676 46.7766H67.8686C68.2071 46.7766 68.4398 46.6073 68.5773 46.2793C68.7149 45.9512 68.7783 45.3904 68.7783 44.6073V42.3851H72.4383L72.4277 42.3745Z" fill="#FCBD16"/>
<path d="M76.5308 44.9354C76.5308 44.1629 76.7423 43.528 77.1549 43.0306C77.5674 42.5333 78.1386 42.2793 78.8473 42.2793C79.5561 42.2793 80.1379 42.5227 80.561 43.02C80.9841 43.5174 81.1851 44.1523 81.1851 44.9248V45.0306C81.1851 45.8031 80.9735 46.438 80.561 46.9354C80.1484 47.4327 79.5772 47.6761 78.8579 47.6761C78.1386 47.6761 77.5674 47.4327 77.1549 46.9354C76.7317 46.438 76.5308 45.8031 76.5308 45.0306V44.9248V44.9354ZM77.4828 45.0412C77.4828 45.5915 77.5991 46.0465 77.8319 46.4063C78.0646 46.7661 78.4136 46.946 78.8685 46.946C79.3234 46.946 79.6619 46.7661 79.8946 46.4063C80.1273 46.0465 80.2437 45.5915 80.2437 45.0412V44.9354C80.2437 44.3851 80.1273 43.9407 79.8946 43.5703C79.6619 43.2105 79.3128 43.0306 78.8579 43.0306C78.4031 43.0306 78.0646 43.2105 77.8319 43.5703C77.5991 43.9301 77.4828 44.3851 77.4828 44.9354V45.0412Z" fill="#FCBD16"/>
<path d="M88.7286 42.3744H89.6806V47.5807H88.7286V43.8876H88.6968L86.4014 47.5807H85.46V42.3744H86.4014V46.0675H86.4331L88.7286 42.3744ZM88.9824 40.2368V40.2686C89.0036 40.6389 88.8872 40.9458 88.6228 41.1786C88.3583 41.4114 88.0093 41.5278 87.5756 41.5278C87.1419 41.5278 86.7822 41.4114 86.5178 41.1786C86.2533 40.9458 86.137 40.6389 86.1581 40.2686V40.2368H86.8986C86.8986 40.4485 86.9515 40.6178 87.0573 40.7553C87.163 40.8823 87.3428 40.9564 87.5756 40.9564C87.8083 40.9564 87.9775 40.8929 88.0939 40.7553C88.2103 40.6178 88.2631 40.4485 88.2631 40.2474H88.993L88.9824 40.2368Z" fill="#FCBD16"/>
<path d="M101.316 45.3692H100.692V47.5809H99.7505V42.3745H100.692V44.5756H101.242L102.956 42.3745H104.077L104.087 42.3957L102.046 44.8719L104.246 47.5597L104.236 47.5809H103.072L101.316 45.3692Z" fill="#FCBD16"/>
<path d="M107.801 44.9354C107.801 44.1629 108.012 43.528 108.425 43.0306C108.837 42.5333 109.409 42.2793 110.117 42.2793C110.826 42.2793 111.408 42.5227 111.831 43.02C112.254 43.5174 112.455 44.1523 112.455 44.9248V45.0306C112.455 45.8031 112.244 46.438 111.831 46.9354C111.418 47.4327 110.847 47.6761 110.128 47.6761C109.409 47.6761 108.837 47.4327 108.425 46.9354C108.002 46.438 107.801 45.8031 107.801 45.0306V44.9248V44.9354ZM108.742 45.0412C108.742 45.5915 108.859 46.0465 109.091 46.4063C109.324 46.7661 109.673 46.946 110.128 46.946C110.583 46.946 110.921 46.7661 111.154 46.4063C111.387 46.0465 111.503 45.5915 111.503 45.0412V44.9354C111.503 44.3851 111.387 43.9407 111.154 43.5703C110.921 43.2105 110.572 43.0306 110.117 43.0306C109.663 43.0306 109.324 43.2105 109.091 43.5703C108.859 43.9301 108.742 44.3851 108.742 44.9354V45.0412Z" fill="#FCBD16"/>
<path d="M119.689 46.3428H119.71L121.413 42.3745H122.598V47.5809H121.646V43.9724L121.625 43.9618L120.028 47.5809H119.372L117.743 43.8772L117.722 43.8877V47.5809H116.77V42.3745H117.986L119.689 46.3428Z" fill="#FCBD16"/>
<path d="M131.39 47.5809H130.438V43.1258H128.121V47.5809H127.169V42.3745H131.39V47.5809Z" fill="#FCBD16"/>
<path d="M140.085 42.3745V47.5809H139.133V43.1258H137.377V44.5967C137.377 45.6232 137.24 46.3745 136.965 46.8613C136.69 47.3375 136.224 47.5809 135.569 47.5809H135.304L135.325 46.7766H135.526C135.865 46.7766 136.098 46.6073 136.235 46.2793C136.373 45.9512 136.436 45.3904 136.436 44.6073V42.3851H140.096L140.085 42.3745Z" fill="#FCBD16"/>
<path d="M146.58 47.6869C145.861 47.6869 145.279 47.4435 144.856 46.9673C144.433 46.4805 144.21 45.8562 144.21 45.0943V44.8826C144.21 44.1419 144.433 43.5281 144.877 43.0308C145.321 42.5334 145.839 42.29 146.442 42.29C147.141 42.29 147.669 42.5017 148.029 42.925C148.389 43.3482 148.569 43.9091 148.569 44.6181V45.2107H145.194V45.2318C145.194 45.7292 145.311 46.1419 145.554 46.4699C145.797 46.798 146.136 46.9567 146.58 46.9567C146.897 46.9567 147.183 46.9144 147.426 46.8191C147.669 46.7239 147.881 46.5969 148.05 46.4382L148.42 47.0519C148.23 47.2318 147.987 47.3906 147.68 47.507C147.373 47.6234 147.003 47.6869 146.569 47.6869H146.58ZM146.432 43.0308C146.114 43.0308 145.839 43.1683 145.617 43.4329C145.395 43.6974 145.258 44.0361 145.205 44.4382V44.4593H147.617V44.3324C147.617 43.962 147.521 43.6445 147.32 43.4011C147.119 43.1472 146.823 43.0308 146.432 43.0308Z" fill="#FCBD16"/>
<path d="M154.344 45.3692H153.72V47.5809H152.779V42.3745H153.72V44.5756H154.27L155.984 42.3745H157.105L157.116 42.3957L155.074 44.8719L157.274 47.5597L157.264 47.5809H156.1L154.344 45.3692Z" fill="#FCBD16"/>
<path d="M163.168 46.9463C163.485 46.9463 163.76 46.851 163.993 46.6606C164.236 46.4701 164.352 46.2267 164.352 45.9516H165.199V45.9833C165.22 46.4384 165.029 46.8299 164.606 47.1791C164.194 47.5283 163.707 47.6976 163.157 47.6976C162.395 47.6976 161.824 47.4542 161.422 46.9569C161.02 46.4595 160.819 45.8458 160.819 45.0944V44.8934C160.819 44.1526 161.02 43.5389 161.422 43.0415C161.824 42.5442 162.406 42.3008 163.157 42.3008C163.771 42.3008 164.268 42.4807 164.649 42.8405C165.029 43.2003 165.22 43.6447 165.209 44.1632V44.195H164.342C164.342 43.8775 164.225 43.6024 164.003 43.3907C163.781 43.1685 163.496 43.0521 163.146 43.0521C162.649 43.0521 162.3 43.232 162.078 43.5918C161.867 43.9516 161.761 44.3854 161.761 44.904V45.105C161.761 45.6341 161.867 46.0786 162.078 46.4384C162.29 46.7876 162.649 46.9675 163.146 46.9675L163.168 46.9463Z" fill="#FCBD16"/>
<path d="M55.8313 18.0243C57.3863 18.0243 58.7297 18.2782 59.8721 18.7967C61.0146 19.3153 61.9031 20.0454 62.5166 21.0084C63.1407 21.9608 63.4475 23.093 63.4475 24.384C63.4475 25.675 63.1407 26.7967 62.5166 27.7385C61.8925 28.6909 61.0146 29.4211 59.8721 29.929C58.7297 30.4475 57.3757 30.7015 55.8313 30.7015H52.8377V35.1883H47.9824V26.8708H55.5351C56.5295 26.8708 57.2805 26.6592 57.7883 26.2253C58.296 25.7915 58.5499 25.1777 58.5499 24.3735C58.5499 23.5692 58.296 22.9555 57.7883 22.511C57.2805 22.0666 56.5295 21.8444 55.5351 21.8444H47.9824V18.0137H55.8313V18.0243Z" fill="white"/>
<path d="M75.6857 31.8561H68.4292L67.0858 35.1894H62.1353L69.7091 18.0254H74.4904L82.0854 35.1894H77.0397L75.6963 31.8561H75.6857ZM74.2682 28.2794L72.0574 22.7873L69.8466 28.2794H74.2577H74.2682Z" fill="white"/>
<path d="M91.2469 35.5392C89.4487 35.5392 87.8408 35.1582 86.4022 34.3963C84.9742 33.6344 83.8529 32.5762 83.0278 31.2217C82.2133 29.8672 81.8008 28.3328 81.8008 26.608C81.8008 24.8831 82.2133 23.3593 83.0278 21.9942C83.8423 20.6397 84.9636 19.5815 86.4022 18.8196C87.8302 18.0577 89.4487 17.6768 91.2469 17.6768C92.8125 17.6768 94.2299 17.9519 95.4887 18.5127C96.7475 19.0736 97.7947 19.8672 98.6304 20.9149L95.5416 23.7085C94.4309 22.3646 93.077 21.6979 91.5008 21.6979C90.57 21.6979 89.7449 21.899 89.015 22.3117C88.2851 22.7244 87.7245 23.2958 87.3225 24.0365C86.9205 24.7773 86.7196 25.6344 86.7196 26.5974C86.7196 27.5604 86.9205 28.4175 87.3225 29.1582C87.7245 29.899 88.2851 30.481 89.015 30.8831C89.7449 31.2958 90.57 31.4969 91.5008 31.4969C93.0875 31.4969 94.4309 30.8302 95.5416 29.4863L98.6304 32.2799C97.7947 33.3276 96.7475 34.1318 95.4887 34.682C94.2299 35.2429 92.8125 35.518 91.2469 35.518V35.5392Z" fill="white"/>
<path d="M109.176 35.5392C107.377 35.5392 105.77 35.1582 104.331 34.3963C102.903 33.6344 101.782 32.5762 100.957 31.2217C100.142 29.8672 99.7295 28.3328 99.7295 26.608C99.7295 24.8831 100.142 23.3593 100.957 21.9942C101.771 20.6397 102.892 19.5815 104.331 18.8196C105.759 18.0577 107.377 17.6768 109.176 17.6768C110.741 17.6768 112.159 17.9519 113.417 18.5127C114.676 19.0736 115.723 19.8672 116.559 20.9149L113.47 23.7085C112.36 22.3646 111.016 21.6979 109.43 21.6979C108.499 21.6979 107.674 21.899 106.944 22.3117C106.214 22.7244 105.653 23.2958 105.251 24.0365C104.849 24.7773 104.648 25.6344 104.648 26.5974C104.648 27.5604 104.849 28.4175 105.251 29.1582C105.653 29.899 106.214 30.481 106.944 30.8831C107.674 31.2958 108.499 31.4969 109.43 31.4969C111.016 31.4969 112.36 30.8302 113.47 29.4863L116.559 32.2799C115.723 33.3276 114.676 34.1318 113.417 34.682C112.159 35.2429 110.741 35.518 109.176 35.518V35.5392Z" fill="white"/>
<path d="M131.231 26.216C132.246 26.5441 133.018 27.052 133.547 27.7398C134.076 28.4277 134.341 29.2742 134.341 30.2901C134.341 31.8139 133.748 33.0097 132.564 33.888C131.379 34.7663 129.697 35.2002 127.528 35.2002H118.728V24.9039H126.598C127.973 24.9039 128.66 24.343 128.66 23.2107C128.66 22.0785 127.973 21.5176 126.598 21.5176H118.728V18.0361H127.063C129.126 18.0361 130.723 18.4277 131.855 19.2002C132.987 19.9726 133.558 21.0732 133.558 22.5017C133.558 23.3377 133.357 24.0679 132.955 24.7134C132.553 25.3483 131.982 25.8562 131.231 26.2372V26.216ZM127.338 31.7081C128.745 31.7081 129.443 31.1155 129.443 29.9197C129.443 28.724 128.745 28.1737 127.338 28.1737H123.509V31.7081H127.338Z" fill="white"/>
<path d="M150.462 31.4434V35.2H136.689V24.6815H149.119V28.3111H141.492V31.454H150.462V31.4434ZM136.689 21.782V18.0254H150.145V21.782H136.689Z" fill="white"/>
<path d="M167.926 21.8772H162.679V35.2H157.898V21.8772H152.63V18.0254H167.926V21.8772Z" fill="white"/>
</svg>
