<svg width="241" height="69" viewBox="0 0 241 69" fill="none" xmlns="http://www.w3.org/2000/svg">
<path d="M40.0467 34.3382C49.5252 34.3382 57.209 26.6514 57.209 17.1693C57.209 7.68723 49.5252 0.000488281 40.0467 0.000488281C30.5681 0.000488281 22.8843 7.68723 22.8843 17.1693C22.8843 26.6514 30.5681 34.3382 40.0467 34.3382Z" fill="white"/>
<path fill-rule="evenodd" clip-rule="evenodd" d="M0 22.8918L22.8832 0V68.6754H0V22.8918Z" fill="#252822"/>
<path d="M75.8373 64.8513H74.9747V68.0761H73.6277V64.8513H72.7499L70.7824 68.0761H69.0723L71.7359 64.1397L69.3144 60.6272H70.9489L72.7802 63.7006H73.6277V60.6272H74.9747V63.7006H75.8222L77.6686 60.6272H79.3031L76.8665 64.1397L79.5301 68.0761H77.8199L75.8373 64.8513Z" fill="white"/>
<path d="M89.8215 60.6272H91.1685V68.0761H89.8215V62.7922L89.7761 62.7771L86.492 68.0761H85.145V60.6272H86.492V65.9111L86.5374 65.9262L89.8215 60.6272Z" fill="white"/>
<path d="M103.625 60.6272V68.0761H102.263V61.7022H99.751V63.8066C99.751 65.2752 99.5543 66.3502 99.1608 67.0466C98.7673 67.7279 98.1014 68.0761 97.163 68.0761H96.7847L96.8149 66.9255H97.1025C97.5868 66.9255 97.9197 66.6832 98.1165 66.2139C98.3132 65.7445 98.404 64.9421 98.404 63.8218V60.6423H103.641L103.625 60.6272Z" fill="white"/>
<path d="M109.495 64.2914C109.495 63.1861 109.798 62.2777 110.388 61.5662C110.978 60.8546 111.796 60.4912 112.81 60.4912C113.824 60.4912 114.656 60.8394 115.261 61.551C115.867 62.2626 116.154 63.171 116.154 64.2762V64.4276C116.154 65.5329 115.852 66.4413 115.261 67.1528C114.671 67.8644 113.854 68.2126 112.825 68.2126C111.796 68.2126 110.978 67.8644 110.388 67.1528C109.783 66.4413 109.495 65.5329 109.495 64.4276V64.2762V64.2914ZM110.857 64.4428C110.857 65.2301 111.024 65.8811 111.357 66.3958C111.69 66.9106 112.189 67.168 112.84 67.168C113.491 67.168 113.975 66.9106 114.308 66.3958C114.641 65.8811 114.807 65.2301 114.807 64.4428V64.2914C114.807 63.5041 114.641 62.8682 114.308 62.3383C113.975 61.8235 113.475 61.5662 112.825 61.5662C112.174 61.5662 111.69 61.8235 111.357 62.3383C111.024 62.8531 110.857 63.5041 110.857 64.2914V64.4428Z" fill="white"/>
<path d="M126.947 60.6266H128.309V68.0756H126.947V62.7917H126.902L123.617 68.0756H122.271V60.6266H123.617V65.9105H123.663L126.947 60.6266ZM127.31 57.5684V57.6138C127.341 58.1437 127.174 58.5827 126.796 58.9158C126.417 59.2489 125.918 59.4154 125.297 59.4154C124.677 59.4154 124.162 59.2489 123.784 58.9158C123.406 58.5827 123.239 58.1437 123.269 57.6138V57.5684H124.329C124.329 57.8712 124.404 58.1134 124.556 58.3102C124.707 58.4919 124.964 58.5979 125.297 58.5979C125.63 58.5979 125.872 58.507 126.039 58.3102C126.205 58.1134 126.281 57.8712 126.281 57.5835H127.325L127.31 57.5684Z" fill="white"/>
<path d="M144.957 64.9118H144.064V68.0761H142.717V60.6272H144.064V63.7763H144.851L147.303 60.6272H148.907L148.922 60.6575L146.001 64.2003L149.149 68.0458L149.134 68.0761H147.469L144.957 64.9118Z" fill="white"/>
<path d="M154.235 64.2914C154.235 63.1861 154.538 62.2777 155.128 61.5662C155.718 60.8546 156.535 60.4912 157.549 60.4912C158.563 60.4912 159.396 60.8394 160.001 61.551C160.606 62.2626 160.894 63.171 160.894 64.2762V64.4276C160.894 65.5329 160.591 66.4413 160.001 67.1528C159.411 67.8644 158.594 68.2126 157.564 68.2126C156.535 68.2126 155.718 67.8644 155.128 67.1528C154.522 66.4413 154.235 65.5329 154.235 64.4276V64.2762V64.2914ZM155.582 64.4428C155.582 65.2301 155.748 65.8811 156.081 66.3958C156.414 66.9106 156.914 67.168 157.564 67.168C158.215 67.168 158.7 66.9106 159.032 66.3958C159.365 65.8811 159.532 65.2301 159.532 64.4428V64.2914C159.532 63.5041 159.365 62.8682 159.032 62.3383C158.7 61.8235 158.2 61.5662 157.549 61.5662C156.899 61.5662 156.414 61.8235 156.081 62.3383C155.748 62.8531 155.582 63.5041 155.582 64.2914V64.4428Z" fill="white"/>
<path d="M171.244 66.3047H171.274L173.711 60.6272H175.406V68.0761H174.044V62.9134L174.014 62.8982L171.728 68.0761H170.79L168.459 62.7771L168.429 62.7922V68.0761H167.067V60.6272H168.807L171.244 66.3047Z" fill="white"/>
<path d="M187.984 68.0761H186.622V61.7022H183.307V68.0761H181.945V60.6272H187.984V68.0761Z" fill="white"/>
<path d="M200.426 60.6272V68.0761H199.064V61.7022H196.551V63.8066C196.551 65.2752 196.355 66.3502 195.961 67.0466C195.568 67.7279 194.902 68.0761 193.963 68.0761H193.585L193.615 66.9255H193.903C194.387 66.9255 194.72 66.6832 194.917 66.2139C195.114 65.7445 195.204 64.9421 195.204 63.8218V60.6423H200.441L200.426 60.6272Z" fill="white"/>
<path d="M209.717 68.2278C208.688 68.2278 207.856 67.8796 207.25 67.1983C206.645 66.5018 206.327 65.6085 206.327 64.5185V64.2157C206.327 63.1559 206.645 62.2777 207.281 61.5661C207.916 60.8546 208.658 60.5063 209.521 60.5063C210.519 60.5063 211.276 60.8091 211.791 61.4147C212.305 62.0204 212.563 62.8228 212.563 63.8372V64.685H207.735V64.7153C207.735 65.4269 207.901 66.0173 208.249 66.4867C208.597 66.956 209.082 67.1831 209.717 67.1831C210.171 67.1831 210.58 67.1226 210.928 66.9863C211.276 66.85 211.579 66.6684 211.821 66.4413L212.351 67.3194C212.078 67.5768 211.73 67.8039 211.291 67.9704C210.852 68.1369 210.323 68.2278 209.702 68.2278H209.717ZM209.505 61.5661C209.051 61.5661 208.658 61.763 208.34 62.1415C208.022 62.52 207.825 63.0045 207.75 63.5798V63.6101H211.2V63.4284C211.2 62.8985 211.064 62.4443 210.777 62.096C210.489 61.7327 210.065 61.5661 209.505 61.5661Z" fill="white"/>
<path d="M220.826 64.9118H219.933V68.0761H218.586V60.6272H219.933V63.7763H220.72L223.172 60.6272H224.776L224.791 60.6575L221.87 64.2003L225.018 68.0458L225.003 68.0761H223.338L220.826 64.9118Z" fill="white"/>
<path d="M233.45 67.168C233.904 67.168 234.297 67.0317 234.63 66.7592C234.978 66.4867 235.145 66.1385 235.145 65.7448H236.355V65.7902C236.386 66.4413 236.113 67.0014 235.508 67.5011C234.918 68.0007 234.222 68.2429 233.435 68.2429C232.345 68.2429 231.528 67.8947 230.952 67.1831C230.377 66.4715 230.09 65.5934 230.09 64.5185V64.2308C230.09 63.171 230.377 62.2929 230.952 61.5813C231.528 60.8697 232.36 60.5215 233.435 60.5215C234.312 60.5215 235.024 60.7789 235.568 61.2936C236.113 61.8084 236.386 62.4443 236.371 63.1861V63.2316H235.13C235.13 62.7774 234.963 62.3837 234.645 62.0809C234.327 61.763 233.919 61.5964 233.419 61.5964C232.708 61.5964 232.209 61.8538 231.891 62.3686C231.588 62.8833 231.437 63.5041 231.437 64.2459V64.5336C231.437 65.2906 231.588 65.9265 231.891 66.4413C232.194 66.9409 232.708 67.1983 233.419 67.1983L233.45 67.168Z" fill="white"/>
<path d="M79.8801 25.7886C82.1049 25.7886 84.0269 26.1519 85.6614 26.8938C87.2959 27.6357 88.5672 28.6803 89.445 30.0581C90.3379 31.4207 90.7768 33.0407 90.7768 34.8878C90.7768 36.7348 90.3379 38.3397 89.445 39.6872C88.5521 41.0498 87.2959 42.0944 85.6614 42.8212C84.0269 43.563 82.0897 43.9264 79.8801 43.9264H75.5971V50.3458H68.6504V38.4457H79.4563C80.879 38.4457 81.9535 38.1429 82.68 37.5221C83.4064 36.9014 83.7696 36.0233 83.7696 34.8726C83.7696 33.722 83.4064 32.8439 82.68 32.208C81.9535 31.5721 80.879 31.2541 79.4563 31.2541H68.6504V25.7734H79.8801V25.7886Z" fill="#252822"/>
<path d="M108.286 45.5784H97.9039L95.9818 50.3475H88.8989L99.7351 25.7903H106.576L117.442 50.3475H110.223L108.301 45.5784H108.286ZM106.258 40.461L103.095 32.6033L99.9319 40.461H106.243H106.258Z" fill="#252822"/>
<path d="M130.55 50.8474C127.977 50.8474 125.676 50.3024 123.618 49.2123C121.575 48.1222 119.971 46.6082 118.79 44.6703C117.625 42.7324 117.035 40.5371 117.035 38.0692C117.035 35.6014 117.625 33.4212 118.79 31.4682C119.956 29.5302 121.56 28.0162 123.618 26.9261C125.661 25.8361 127.977 25.291 130.55 25.291C132.79 25.291 134.818 25.6847 136.619 26.4871C138.42 27.2895 139.918 28.425 141.113 29.9239L136.694 33.9209C135.105 31.9981 133.168 31.0442 130.913 31.0442C129.581 31.0442 128.401 31.3319 127.356 31.9224C126.312 32.5128 125.51 33.3304 124.935 34.3902C124.36 35.45 124.072 36.6763 124.072 38.0541C124.072 39.4318 124.36 40.6582 124.935 41.718C125.51 42.7778 126.312 43.6105 127.356 44.1858C128.401 44.7763 129.581 45.0639 130.913 45.0639C133.183 45.0639 135.105 44.1101 136.694 42.1873L141.113 46.1843C139.918 47.6832 138.42 48.8338 136.619 49.6211C134.818 50.4235 132.79 50.8172 130.55 50.8172V50.8474Z" fill="#252822"/>
<path d="M156.202 50.8474C153.629 50.8474 151.328 50.3024 149.27 49.2123C147.227 48.1222 145.623 46.6082 144.442 44.6703C143.277 42.7324 142.687 40.5371 142.687 38.0692C142.687 35.6014 143.277 33.4212 144.442 31.4682C145.607 29.5302 147.212 28.0162 149.27 26.9261C151.313 25.8361 153.629 25.291 156.202 25.291C158.441 25.291 160.469 25.6847 162.27 26.4871C164.071 27.2895 165.57 28.425 166.765 29.9239L162.346 33.9209C160.757 31.9981 158.835 31.0442 156.565 31.0442C155.233 31.0442 154.052 31.3319 153.008 31.9224C151.964 32.5128 151.162 33.3304 150.587 34.3902C150.012 35.45 149.724 36.6763 149.724 38.0541C149.724 39.4318 150.012 40.6582 150.587 41.718C151.162 42.7778 151.964 43.6105 153.008 44.1858C154.052 44.7763 155.233 45.0639 156.565 45.0639C158.835 45.0639 160.757 44.1101 162.346 42.1873L166.765 46.1843C165.57 47.6832 164.071 48.8338 162.27 49.6211C160.469 50.4235 158.441 50.8172 156.202 50.8172V50.8474Z" fill="#252822"/>
<path d="M187.757 37.5085C189.21 37.9778 190.315 38.7045 191.071 39.6886C191.828 40.6727 192.207 41.8839 192.207 43.3374C192.207 45.5175 191.359 47.2284 189.664 48.485C187.969 49.7416 185.563 50.3624 182.46 50.3624H169.868V35.6311H181.128C183.096 35.6311 184.079 34.8287 184.079 33.2087C184.079 31.5887 183.096 30.7863 181.128 30.7863H169.868V25.8052H181.794C184.745 25.8052 187.031 26.3654 188.65 27.4706C190.269 28.5758 191.087 30.1504 191.087 32.1943C191.087 33.3904 190.799 34.435 190.224 35.3586C189.649 36.267 188.832 36.9937 187.757 37.5387V37.5085ZM182.188 45.3662C184.2 45.3662 185.199 44.5183 185.199 42.8075C185.199 41.0967 184.2 40.3094 182.188 40.3094H176.709V45.3662H182.188Z" fill="#252822"/>
<path d="M215.271 44.9879V50.3626H195.566V35.3134H213.349V40.5064H202.437V45.003H215.271V44.9879ZM195.566 31.165V25.7903H214.817V31.165H195.566Z" fill="#252822"/>
<path d="M240.258 31.3013H232.752V50.3626H225.911V31.3013H218.374V25.7903H240.258V31.3013Z" fill="#252822"/>
</svg>
