<svg width="133" height="39" viewBox="0 0 133 39" fill="none" xmlns="http://www.w3.org/2000/svg">
<path d="M22.1686 19.0084C27.4156 19.0084 31.6692 14.7532 31.6692 9.50418C31.6692 4.25516 27.4156 0 22.1686 0C16.9215 0 12.668 4.25516 12.668 9.50418C12.668 14.7532 16.9215 19.0084 22.1686 19.0084Z" fill="#FCBD16"/>
<path fill-rule="evenodd" clip-rule="evenodd" d="M0 12.6722L12.6675 0V38.0167H0V12.6722Z" fill="#252822"/>
<path d="M41.9813 35.8994H41.5037V37.6845H40.7581V35.8994H40.2722L39.183 37.6845H38.2363L39.7108 35.5055L38.3704 33.561H39.2752L40.2889 35.2624H40.7581V33.561H41.5037V35.2624H41.9729L42.995 33.561H43.8998L42.551 35.5055L44.0255 37.6845H43.0788L41.9813 35.8994Z" fill="#FCBD16"/>
<path d="M49.7226 33.561H50.4682V37.6845H49.7226V34.7595L49.6974 34.7512L47.8794 37.6845H47.1338V33.561H47.8794V36.486L47.9046 36.4944L49.7226 33.561Z" fill="#FCBD16"/>
<path d="M57.364 33.561V37.6845H56.61V34.1561H55.2192V35.3211C55.2192 36.134 55.1103 36.7291 54.8925 37.1146C54.6747 37.4918 54.306 37.6845 53.7866 37.6845H53.5771L53.5939 37.0476H53.7531C54.0212 37.0476 54.2055 36.9135 54.3144 36.6537C54.4233 36.3939 54.4736 35.9497 54.4736 35.3295V33.5694H57.3724L57.364 33.561Z" fill="#FCBD16"/>
<path d="M60.6133 35.5895C60.6133 34.9777 60.7808 34.4748 61.1076 34.0809C61.4343 33.687 61.8867 33.4858 62.448 33.4858C63.0094 33.4858 63.4702 33.6786 63.8053 34.0725C64.1404 34.4664 64.2996 34.9693 64.2996 35.5811V35.6649C64.2996 36.2767 64.132 36.7796 63.8053 37.1735C63.4785 37.5674 63.0261 37.7602 62.4564 37.7602C61.8867 37.7602 61.4343 37.5674 61.1076 37.1735C60.7725 36.7796 60.6133 36.2767 60.6133 35.6649V35.5811V35.5895ZM61.3673 35.6733C61.3673 36.1091 61.4595 36.4695 61.6438 36.7545C61.8281 37.0394 62.1046 37.1819 62.4648 37.1819C62.8251 37.1819 63.0932 37.0394 63.2775 36.7545C63.4618 36.4695 63.5539 36.1091 63.5539 35.6733V35.5895C63.5539 35.1537 63.4618 34.8017 63.2775 34.5083C63.0932 34.2234 62.8167 34.0809 62.4564 34.0809C62.0962 34.0809 61.8281 34.2234 61.6438 34.5083C61.4595 34.7933 61.3673 35.1537 61.3673 35.5895V35.6733Z" fill="#FCBD16"/>
<path d="M70.2743 33.5607H71.0284V37.6842H70.2743V34.7592H70.2492L68.4312 37.6842H67.6855V33.5607H68.4312V36.4857H68.4563L70.2743 33.5607ZM70.4754 31.8677V31.8928C70.4922 32.1862 70.4 32.4292 70.1906 32.6136C69.9811 32.798 69.7046 32.8902 69.3611 32.8902C69.0176 32.8902 68.7328 32.798 68.5233 32.6136C68.3139 32.4292 68.2217 32.1862 68.2385 31.8928V31.8677H68.8249C68.8249 32.0353 68.8668 32.1694 68.9506 32.2783C69.0344 32.3789 69.1768 32.4376 69.3611 32.4376C69.5455 32.4376 69.6795 32.3873 69.7717 32.2783C69.8638 32.1694 69.9057 32.0353 69.9057 31.8761H70.4838L70.4754 31.8677Z" fill="#FCBD16"/>
<path d="M80.2438 35.9329H79.7495V37.6845H79.0039V33.561H79.7495V35.3043H80.1852L81.5424 33.561H82.4305L82.4389 33.5778L80.8219 35.539L82.5645 37.6678L82.5562 37.6845H81.6346L80.2438 35.9329Z" fill="#FCBD16"/>
<path d="M85.3799 35.5895C85.3799 34.9777 85.5475 34.4748 85.8742 34.0809C86.2009 33.687 86.6533 33.4858 87.2147 33.4858C87.776 33.4858 88.2368 33.6786 88.5719 34.0725C88.907 34.4664 89.0662 34.9693 89.0662 35.5811V35.6649C89.0662 36.2767 88.8986 36.7796 88.5719 37.1735C88.2452 37.5674 87.7927 37.7602 87.223 37.7602C86.6533 37.7602 86.2009 37.5674 85.8742 37.1735C85.5391 36.7796 85.3799 36.2767 85.3799 35.6649V35.5811V35.5895ZM86.1255 35.6733C86.1255 36.1091 86.2177 36.4695 86.402 36.7545C86.5863 37.0394 86.8628 37.1819 87.223 37.1819C87.5833 37.1819 87.8514 37.0394 88.0357 36.7545C88.22 36.4695 88.3122 36.1091 88.3122 35.6733V35.5895C88.3122 35.1537 88.22 34.8017 88.0357 34.5083C87.8514 34.2234 87.5749 34.0809 87.2147 34.0809C86.8544 34.0809 86.5863 34.2234 86.402 34.5083C86.2177 34.7933 86.1255 35.1537 86.1255 35.5895V35.6733Z" fill="#FCBD16"/>
<path d="M94.7957 36.704H94.8125L96.1613 33.561H97.0996V37.6845H96.3456V34.8266L96.3289 34.8182L95.0638 37.6845H94.5444L93.2542 34.7512L93.2374 34.7595V37.6845H92.4834V33.561H93.4469L94.7957 36.704Z" fill="#FCBD16"/>
<path d="M104.063 37.6845H103.309V34.1561H101.474V37.6845H100.72V33.561H104.063V37.6845Z" fill="#FCBD16"/>
<path d="M110.95 33.561V37.6845H110.196V34.1561H108.805V35.3211C108.805 36.134 108.696 36.7291 108.478 37.1146C108.261 37.4918 107.892 37.6845 107.373 37.6845H107.163L107.18 37.0476H107.339C107.607 37.0476 107.791 36.9135 107.9 36.6537C108.009 36.3939 108.06 35.9497 108.06 35.3295V33.5694H110.958L110.95 33.561Z" fill="#FCBD16"/>
<path d="M116.093 37.7685C115.524 37.7685 115.063 37.5757 114.728 37.1986C114.393 36.8131 114.217 36.3186 114.217 35.7151V35.5475C114.217 34.9608 114.393 34.4747 114.745 34.0808C115.096 33.6869 115.507 33.4941 115.985 33.4941C116.537 33.4941 116.956 33.6618 117.241 33.997C117.526 34.3323 117.669 34.7764 117.669 35.338V35.8073H114.996V35.8241C114.996 36.218 115.088 36.5449 115.281 36.8047C115.473 37.0645 115.742 37.1902 116.093 37.1902C116.345 37.1902 116.571 37.1567 116.764 37.0813C116.956 37.0058 117.124 36.9053 117.258 36.7795L117.551 37.2656C117.4 37.4081 117.208 37.5338 116.965 37.626C116.722 37.7182 116.429 37.7685 116.085 37.7685H116.093ZM115.976 34.0808C115.725 34.0808 115.507 34.1898 115.331 34.3993C115.155 34.6088 115.046 34.877 115.004 35.1955V35.2123H116.914V35.1117C116.914 34.8184 116.839 34.5669 116.68 34.3742C116.521 34.173 116.286 34.0808 115.976 34.0808Z" fill="#FCBD16"/>
<path d="M122.243 35.9329H121.749V37.6845H121.003V33.561H121.749V35.3043H122.184L123.541 33.561H124.43L124.438 33.5778L122.821 35.539L124.564 37.6678L124.555 37.6845H123.634L122.243 35.9329Z" fill="#FCBD16"/>
<path d="M129.231 37.1817C129.482 37.1817 129.7 37.1063 129.884 36.9555C130.077 36.8046 130.169 36.6118 130.169 36.3939H130.84V36.4191C130.856 36.7795 130.706 37.0896 130.37 37.3661C130.044 37.6427 129.658 37.7768 129.223 37.7768C128.619 37.7768 128.167 37.584 127.849 37.1901C127.53 36.7962 127.371 36.3101 127.371 35.7151V35.5558C127.371 34.9691 127.53 34.483 127.849 34.0891C128.167 33.6952 128.628 33.5024 129.223 33.5024C129.709 33.5024 130.102 33.6449 130.404 33.9299C130.706 34.2148 130.856 34.5668 130.848 34.9775V35.0027H130.161C130.161 34.7512 130.069 34.5333 129.893 34.3657C129.717 34.1897 129.491 34.0975 129.214 34.0975C128.82 34.0975 128.544 34.24 128.368 34.5249C128.201 34.8099 128.117 35.1535 128.117 35.5642V35.7234C128.117 36.1425 128.201 36.4945 128.368 36.7795C128.536 37.056 128.82 37.1985 129.214 37.1985L129.231 37.1817Z" fill="#FCBD16"/>
<path d="M44.2194 14.2755C45.4509 14.2755 46.5149 14.4766 47.4198 14.8873C48.3246 15.298 49.0283 15.8763 49.5142 16.6389C50.0085 17.3932 50.2515 18.29 50.2515 19.3125C50.2515 20.335 50.0085 21.2234 49.5142 21.9693C49.0199 22.7236 48.3246 23.3019 47.4198 23.7042C46.5149 24.1149 45.4426 24.316 44.2194 24.316H41.8484V27.8696H38.0029V21.2821H43.9848C44.7723 21.2821 45.3672 21.1145 45.7693 20.7708C46.1714 20.4272 46.3725 19.9411 46.3725 19.3041C46.3725 18.6672 46.1714 18.1811 45.7693 17.8291C45.3672 17.4771 44.7723 17.3011 43.9848 17.3011H38.0029V14.2671H44.2194V14.2755Z" fill="#252822"/>
<path d="M59.9441 25.2305H54.1968L53.1328 27.8705H49.2119L55.2105 14.2764H58.9974L65.0127 27.8705H61.0165L59.9524 25.2305H59.9441ZM58.8214 22.3977L57.0704 18.0479L55.3194 22.3977H58.813H58.8214Z" fill="#252822"/>
<path d="M72.2686 28.1473C70.8444 28.1473 69.5709 27.8456 68.4315 27.2422C67.3005 26.6387 66.4124 25.8006 65.7589 24.7278C65.1138 23.655 64.7871 22.4398 64.7871 21.0737C64.7871 19.7075 65.1138 18.5007 65.7589 17.4195C66.404 16.3467 67.2921 15.5086 68.4315 14.9052C69.5625 14.3017 70.8444 14 72.2686 14C73.5086 14 74.6312 14.2179 75.6282 14.6621C76.6251 15.1063 77.4546 15.7349 78.1164 16.5646L75.6701 18.7772C74.7904 17.7128 73.718 17.1848 72.4697 17.1848C71.7324 17.1848 71.0789 17.3441 70.5009 17.6709C69.9228 17.9978 69.4788 18.4504 69.1604 19.037C68.842 19.6237 68.6829 20.3026 68.6829 21.0653C68.6829 21.828 68.842 22.5068 69.1604 23.0935C69.4788 23.6802 69.9228 24.1411 70.5009 24.4596C71.0789 24.7865 71.7324 24.9457 72.4697 24.9457C73.7264 24.9457 74.7904 24.4177 75.6701 23.3533L78.1164 25.5659C77.4546 26.3957 76.6251 27.0326 75.6282 27.4684C74.6312 27.9126 73.5086 28.1306 72.2686 28.1306V28.1473Z" fill="#252822"/>
<path d="M86.4688 28.1473C85.0446 28.1473 83.7711 27.8456 82.6317 27.2422C81.5007 26.6387 80.6126 25.8006 79.9592 24.7278C79.314 23.655 78.9873 22.4398 78.9873 21.0737C78.9873 19.7075 79.314 18.5007 79.9592 17.4195C80.6043 16.3467 81.4923 15.5086 82.6317 14.9052C83.7627 14.3017 85.0446 14 86.4688 14C87.7087 14 88.8314 14.2179 89.8284 14.6621C90.8254 15.1063 91.6548 15.7349 92.3166 16.5646L89.8703 18.7772C88.9906 17.7128 87.9266 17.1848 86.6699 17.1848C85.9326 17.1848 85.2791 17.3441 84.7011 17.6709C84.123 17.9978 83.679 18.4504 83.3606 19.037C83.0422 19.6237 82.883 20.3026 82.883 21.0653C82.883 21.828 83.0422 22.5068 83.3606 23.0935C83.679 23.6802 84.123 24.1411 84.7011 24.4596C85.2791 24.7865 85.9326 24.9457 86.6699 24.9457C87.9266 24.9457 88.9906 24.4177 89.8703 23.3533L92.3166 25.5659C91.6548 26.3957 90.8254 27.0326 89.8284 27.4684C88.8314 27.9126 87.7087 28.1306 86.4688 28.1306V28.1473Z" fill="#252822"/>
<path d="M103.937 20.7633C104.741 21.0231 105.353 21.4254 105.772 21.9702C106.191 22.5149 106.4 23.1854 106.4 23.99C106.4 25.1969 105.931 26.1439 104.993 26.8396C104.054 27.5352 102.722 27.8788 101.005 27.8788H94.0342V19.724H100.267C101.357 19.724 101.901 19.2798 101.901 18.383C101.901 17.4863 101.357 17.0421 100.267 17.0421H94.0342V14.2847H100.636C102.27 14.2847 103.535 14.5948 104.431 15.2066C105.328 15.8184 105.78 16.69 105.78 17.8215C105.78 18.4836 105.621 19.0619 105.303 19.5732C104.984 20.076 104.532 20.4783 103.937 20.78V20.7633ZM100.854 25.1131C101.968 25.1131 102.521 24.6437 102.521 23.6967C102.521 22.7496 101.968 22.3138 100.854 22.3138H97.821V25.1131H100.854Z" fill="#252822"/>
<path d="M119.168 24.9036V27.8789H108.26V19.5481H118.104V22.4228H112.063V24.912H119.168V24.9036ZM108.26 17.2517V14.2764H118.917V17.2517H108.26Z" fill="#252822"/>
<path d="M133 17.3271H128.845V27.8789H125.058V17.3271H120.886V14.2764H133V17.3271Z" fill="#252822"/>
</svg>
