<svg width="505" height="601" viewBox="0 0 505 601" fill="none" xmlns="http://www.w3.org/2000/svg">
<path d="M238.571 0.370381C292.967 0.370381 339.962 9.25747 379.926 27.4023C419.891 45.547 450.974 71.098 472.436 104.795C494.269 138.123 505 177.745 505 222.922C505 268.098 494.269 307.351 472.436 340.307C450.604 373.635 419.891 399.185 379.926 416.96C339.962 435.105 292.597 443.992 238.571 443.992H133.849V601H-36V309.943H228.209C262.993 309.943 289.266 302.537 307.028 287.354C324.79 272.172 333.671 250.694 333.671 222.551C333.671 194.409 324.79 172.931 307.028 157.378C289.266 141.826 262.993 134.049 228.209 134.049H-36V0H238.571V0.370381Z" fill="#F0F4F4"/>
</svg>
