<svg width="1920" height="321" viewBox="0 0 1920 321" fill="none" xmlns="http://www.w3.org/2000/svg">
<g opacity="0.5">
<path d="M23.9537 6.24574C51.8784 6.24574 76.0039 10.8065 96.5201 20.1183C117.036 29.43 132.993 42.5426 144.011 59.8359C155.219 76.9391 160.728 97.2729 160.728 120.457C160.728 143.642 155.219 163.786 144.011 180.699C132.803 197.802 117.036 210.914 96.5201 220.036C76.0039 229.348 51.6885 233.909 23.9537 233.909H-29.8063V314.484H-117V165.116H18.6346C36.4912 165.116 49.9788 161.315 59.0971 153.524C68.2154 145.732 72.7745 134.71 72.7745 120.267C72.7745 105.825 68.2154 94.8025 59.0971 86.821C49.9788 78.8394 36.4912 74.8487 18.6346 74.8487H-117V6.05566H23.9537V6.24574Z" fill="#F0F4F4"/>
<path d="M380.501 254.644H250.185L226.06 314.505H137.156L273.171 6.2666H359.035L495.429 314.505H404.816L380.691 254.644H380.501ZM355.045 190.411L315.343 91.7828L275.64 190.411H354.855H355.045Z" fill="#F0F4F4"/>
<path d="M659.952 320.781C627.658 320.781 598.783 313.939 572.948 300.257C547.303 286.574 527.166 267.571 512.349 243.246C497.722 218.921 490.313 191.366 490.313 160.39C490.313 129.415 497.722 102.049 512.349 77.5347C526.976 53.2101 547.113 34.2065 572.948 20.5239C598.593 6.84133 627.658 0 659.952 0C688.066 0 713.521 4.94095 736.127 15.0129C758.733 25.0848 777.539 39.3374 792.547 58.151L737.077 108.32C717.131 84.1859 692.815 72.2137 664.511 72.2137C647.794 72.2137 632.977 75.8243 619.869 83.2357C606.761 90.6471 596.694 100.909 589.475 114.212C582.256 127.514 578.647 142.907 578.647 160.2C578.647 177.494 582.256 192.886 589.475 206.189C596.694 219.492 606.761 229.943 619.869 237.165C632.977 244.576 647.794 248.187 664.511 248.187C693.005 248.187 717.131 236.215 737.077 212.08L792.547 262.25C777.539 281.063 758.733 295.506 736.127 305.388C713.521 315.46 688.066 320.401 659.952 320.401V320.781Z" fill="#F0F4F4"/>
<path d="M981.931 320.781C949.637 320.781 920.762 313.939 894.927 300.257C869.282 286.574 849.146 267.571 834.329 243.246C819.702 218.921 812.293 191.366 812.293 160.39C812.293 129.415 819.702 102.049 834.329 77.5347C848.956 53.2101 869.092 34.2065 894.927 20.5239C920.572 6.84133 949.637 0 981.931 0C1010.05 0 1035.5 4.94095 1058.11 15.0129C1080.71 25.0848 1099.52 39.3374 1114.53 58.151L1059.06 108.32C1039.11 84.1859 1014.98 72.2137 986.49 72.2137C969.773 72.2137 954.956 75.8243 941.849 83.2357C928.741 90.6471 918.673 100.909 911.454 114.212C904.236 127.514 900.626 142.907 900.626 160.2C900.626 177.494 904.236 192.886 911.454 206.189C918.673 219.492 928.741 229.943 941.849 237.165C954.956 244.576 969.773 248.187 986.49 248.187C1014.98 248.187 1039.11 236.215 1059.06 212.08L1114.53 262.25C1099.52 281.063 1080.71 295.506 1058.11 305.388C1035.5 315.46 1010.05 320.401 981.931 320.401V320.781Z" fill="#F0F4F4"/>
<path d="M1378.01 153.353C1396.24 159.244 1410.11 168.366 1419.61 180.718C1429.11 193.07 1433.86 208.273 1433.86 226.517C1433.86 253.882 1423.22 275.356 1401.94 291.129C1380.67 306.902 1350.46 314.693 1311.52 314.693H1153.47V129.789H1294.8C1319.5 129.789 1331.85 119.716 1331.85 99.3826C1331.85 79.0488 1319.5 68.9769 1294.8 68.9769H1153.47V6.45508H1303.16C1340.21 6.45508 1368.89 13.4865 1389.22 27.3591C1409.54 41.2318 1419.8 60.9954 1419.8 86.6503C1419.8 101.663 1416.19 114.776 1408.97 126.368C1401.75 137.77 1391.5 146.892 1378.01 153.733V153.353ZM1308.1 251.982C1333.37 251.982 1345.9 241.34 1345.9 219.866C1345.9 198.391 1333.37 188.51 1308.1 188.51H1239.33V251.982H1308.1Z" fill="#F0F4F4"/>
<path d="M1723.36 247.232V314.695H1476.03V125.799H1699.23V190.982H1562.27V247.422H1723.36V247.232ZM1476.03 73.7293V6.2666H1717.66V73.7293H1476.03Z" fill="#F0F4F4"/>
<path d="M2037 75.4397H1942.78V314.695H1856.91V75.4397H1762.31V6.2666H2037V75.4397Z" fill="#F0F4F4"/>
</g>
</svg>
