<svg width="1946" height="290" viewBox="0 0 1946 290" fill="none" xmlns="http://www.w3.org/2000/svg">
<g style="mix-blend-mode:soft-light" opacity="0.2">
<path d="M127.343 5.64267C152.571 5.64267 174.367 9.76304 192.902 18.1756C211.437 26.5882 225.853 38.4346 235.807 54.0579C245.932 69.5096 250.909 87.8798 250.909 108.825C250.909 129.771 245.932 147.97 235.807 163.25C225.681 178.701 211.437 190.548 192.902 198.789C174.367 207.201 152.399 211.322 127.343 211.322H78.7739V284.116H0V149.172H122.537C138.669 149.172 150.855 145.738 159.092 138.699C167.33 131.66 171.449 121.702 171.449 108.654C171.449 95.6058 167.33 85.648 159.092 78.4372C150.855 71.2264 138.669 67.6211 122.537 67.6211H0V5.47095H127.343V5.64267Z" fill="#F0F4F4"/>
<path d="M449.46 230.054H331.728L309.933 284.135H229.614L352.495 5.66138H430.067L553.291 284.135H471.428L449.632 230.054H449.46ZM426.463 172.024L390.594 82.9197L354.726 172.024H426.291H426.463Z" fill="#F0F4F4"/>
<path d="M701.926 289.805C672.751 289.805 646.664 283.624 623.324 271.263C600.155 258.901 581.963 241.733 568.577 219.757C555.362 197.781 548.669 172.887 548.669 144.902C548.669 116.918 555.362 92.195 568.577 70.0476C581.792 48.0719 599.983 30.9034 623.324 18.542C646.493 6.1807 672.751 0 701.926 0C727.326 0 750.323 4.46383 770.746 13.5632C791.169 22.6625 808.159 35.5388 821.717 52.5357L771.604 97.8606C753.584 76.0565 731.616 65.2405 706.045 65.2405C690.942 65.2405 677.556 68.5024 665.714 75.1981C653.872 81.8938 644.777 91.1649 638.255 103.183C631.733 115.201 628.472 129.107 628.472 144.731C628.472 160.354 631.733 174.261 638.255 186.278C644.777 198.296 653.872 207.739 665.714 214.263C677.556 220.959 690.942 224.221 706.045 224.221C731.788 224.221 753.584 213.405 771.604 191.601L821.717 236.926C808.159 253.923 791.169 266.971 770.746 275.898C750.323 284.998 727.326 289.461 701.926 289.461V289.805Z" fill="#F0F4F4"/>
<path d="M992.814 289.805C963.638 289.805 937.552 283.624 914.211 271.263C891.043 258.901 872.851 241.733 859.465 219.757C846.25 197.781 839.557 172.887 839.557 144.902C839.557 116.918 846.25 92.195 859.465 70.0476C872.679 48.0719 890.871 30.9034 914.211 18.542C937.38 6.1807 963.638 0 992.814 0C1018.21 0 1041.21 4.46383 1061.63 13.5632C1082.06 22.6625 1099.05 35.5388 1112.61 52.5357L1062.49 97.8606C1044.47 76.0565 1022.68 65.2405 996.933 65.2405C981.83 65.2405 968.444 68.5024 956.602 75.1981C944.76 81.8938 935.664 91.1649 929.143 103.183C922.621 115.201 919.36 129.107 919.36 144.731C919.36 160.354 922.621 174.261 929.143 186.278C935.664 198.296 944.76 207.739 956.602 214.263C968.444 220.959 981.83 224.221 996.933 224.221C1022.68 224.221 1044.47 213.405 1062.49 191.601L1112.61 236.926C1099.05 253.923 1082.06 266.971 1061.63 275.898C1041.21 284.998 1018.21 289.461 992.814 289.461V289.805Z" fill="#F0F4F4"/>
<path d="M1350.64 138.544C1367.12 143.867 1379.65 152.107 1388.23 163.267C1396.81 174.427 1401.1 188.161 1401.1 204.643C1401.1 229.366 1391.49 248.766 1372.27 263.016C1353.05 277.266 1325.76 284.305 1290.58 284.305H1147.79V117.255H1275.47C1297.78 117.255 1308.94 108.156 1308.94 89.7856C1308.94 71.4153 1297.78 62.316 1275.47 62.316H1147.79V5.83154H1283.02C1316.49 5.83154 1342.41 12.184 1360.77 24.717C1379.13 37.2501 1388.4 55.1052 1388.4 78.2827C1388.4 91.8459 1385.14 103.692 1378.62 114.165C1372.1 124.466 1362.83 132.707 1350.64 138.888V138.544ZM1287.49 227.649C1310.31 227.649 1321.64 218.035 1321.64 198.634C1321.64 179.234 1310.31 170.306 1287.49 170.306H1225.36V227.649H1287.49Z" fill="#F0F4F4"/>
<path d="M1662.65 223.358V284.306H1439.2V113.651H1640.85V172.539H1517.11V223.53H1662.65V223.358ZM1439.2 66.6096V5.66138H1657.5V66.6096H1439.2Z" fill="#F0F4F4"/>
<path d="M1946 68.1548H1860.88V284.306H1783.3V68.1548H1697.84V5.66138H1946V68.1548Z" fill="#F0F4F4"/>
</g>
</svg>
