<svg width="48" height="48" viewBox="0 0 48 48" fill="none" xmlns="http://www.w3.org/2000/svg">
<rect x="10.9414" y="4.41309" width="26.1156" height="39.1733" rx="4.35259" fill="#FCBD16" fill-opacity="0.4"/>
<path d="M26.9028 8.76565H21.0993C20.762 8.76565 20.5933 8.76565 20.455 8.72857C20.0794 8.62796 19.7861 8.33465 19.6855 7.95914C19.6484 7.82076 19.6484 7.6521 19.6484 7.31479C19.6484 7.14613 19.6484 7.0618 19.667 6.99261C19.7173 6.80486 19.8639 6.6582 20.0517 6.60789C20.1209 6.58936 20.2052 6.58936 20.3739 6.58936H27.6282C27.7969 6.58936 27.8812 6.58936 27.9504 6.60789C28.1381 6.6582 28.2848 6.80486 28.3351 6.99261C28.3536 7.0618 28.3536 7.14613 28.3536 7.31479C28.3536 7.6521 28.3536 7.82076 28.3165 7.95914C28.2159 8.33465 27.9226 8.62796 27.5471 8.72857C27.4087 8.76565 27.2401 8.76565 26.9028 8.76565Z" fill="#FCBD16"/>
<circle cx="24.0005" cy="37.0576" r="2.1763" fill="#FCBD16"/>
</svg>
