<svg width="48" height="48" viewBox="0 0 48 48" fill="none" xmlns="http://www.w3.org/2000/svg">
<path opacity="0.4" fill-rule="evenodd" clip-rule="evenodd" d="M24 4.5C9.602 4.5 4.5 9.604 4.5 24C4.5 38.396 9.602 43.5 24 43.5C38.398 43.5 43.5 38.396 43.5 24C43.5 9.604 38.398 4.5 24 4.5Z" fill="#FCBD16"/>
<path fill-rule="evenodd" clip-rule="evenodd" d="M24.5195 26.367H20.6579V31.5988C20.6579 32.1492 20.2118 32.5953 19.6614 32.5953H18.997C18.4467 32.5953 18.0005 32.1492 18.0005 31.5988V16.4016C18.0005 15.8512 18.4467 15.405 18.997 15.405H24.5195C25.9732 15.405 27.3673 15.9825 28.3952 17.0104C29.423 18.0382 30.0005 19.4324 30.0005 20.886C30.0005 22.3396 29.423 23.7337 28.3952 24.7616C27.3673 25.7895 25.9732 26.367 24.5195 26.367ZM24.5195 18.0625H20.6579V23.7095H24.5195C25.2684 23.7095 25.9865 23.412 26.5161 22.8825C27.0456 22.353 27.343 21.6348 27.343 20.886C27.343 20.1372 27.0456 19.419 26.5161 18.8895C25.9865 18.3599 25.2684 18.0625 24.5195 18.0625Z" fill="#FCBD16"/>
<path d="M20.6579 26.367V25.6507H19.9417V26.367H20.6579ZM28.3952 17.0104L28.9016 16.5039L28.9016 16.5039L28.3952 17.0104ZM28.3952 24.7616L28.9016 25.2681H28.9016L28.3952 24.7616ZM20.6579 18.0625V17.3462H19.9417V18.0625H20.6579ZM20.6579 23.7095H19.9417V24.4258H20.6579V23.7095ZM26.5161 18.8895L26.0096 19.3959L26.0096 19.3959L26.5161 18.8895ZM20.6579 27.0832H24.5195V25.6507H20.6579V27.0832ZM21.3742 31.5988V26.367H19.9417V31.5988H21.3742ZM19.6614 33.3116C20.6073 33.3116 21.3742 32.5448 21.3742 31.5988H19.9417C19.9417 31.7536 19.8162 31.8791 19.6614 31.8791V33.3116ZM18.997 33.3116H19.6614V31.8791H18.997V33.3116ZM17.2842 31.5988C17.2842 32.5448 18.0511 33.3116 18.997 33.3116V31.8791C18.8422 31.8791 18.7168 31.7536 18.7168 31.5988H17.2842ZM17.2842 16.4016V31.5988H18.7168V16.4016H17.2842ZM18.997 14.6888C18.0511 14.6888 17.2842 15.4556 17.2842 16.4016H18.7168C18.7168 16.2468 18.8422 16.1213 18.997 16.1213V14.6888ZM24.5195 14.6888H18.997V16.1213H24.5195V14.6888ZM28.9016 16.5039C27.7394 15.3417 26.1631 14.6888 24.5195 14.6888V16.1213C25.7832 16.1213 26.9951 16.6233 27.8887 17.5168L28.9016 16.5039ZM30.7168 20.886C30.7168 19.2424 30.0638 17.6661 28.9016 16.5039L27.8887 17.5168C28.7822 18.4104 29.2842 19.6223 29.2842 20.886H30.7168ZM28.9016 25.2681C30.0638 24.1059 30.7168 22.5296 30.7168 20.886H29.2842C29.2842 22.1497 28.7822 23.3616 27.8887 24.2552L28.9016 25.2681ZM24.5195 27.0832C26.1631 27.0832 27.7394 26.4303 28.9016 25.2681L27.8887 24.2552C26.9951 25.1487 25.7832 25.6507 24.5195 25.6507V27.0832ZM20.6579 18.7787H24.5195V17.3462H20.6579V18.7787ZM21.3742 23.7095V18.0625H19.9417V23.7095H21.3742ZM24.5195 22.9933H20.6579V24.4258H24.5195V22.9933ZM26.0096 22.3761C25.6144 22.7712 25.0784 22.9933 24.5195 22.9933V24.4258C25.4583 24.4258 26.3587 24.0528 27.0225 23.389L26.0096 22.3761ZM26.6268 20.886C26.6268 21.4449 26.4048 21.9809 26.0096 22.3761L27.0225 23.389C27.6864 22.7252 28.0593 21.8248 28.0593 20.886H26.6268ZM26.0096 19.3959C26.4048 19.7911 26.6268 20.3271 26.6268 20.886H28.0593C28.0593 19.9472 27.6864 19.0468 27.0225 18.383L26.0096 19.3959ZM24.5195 18.7787C25.0784 18.7787 25.6144 19.0007 26.0096 19.3959L27.0225 18.383C26.3587 17.7191 25.4583 17.3462 24.5195 17.3462V18.7787Z" fill="#FCBD16"/>
</svg>
