<svg width="48" height="48" viewBox="0 0 48 48" fill="none" xmlns="http://www.w3.org/2000/svg">
<g clip-path="url(#clip0_55_1082)">
<path d="M42 39.9999C42 40.5304 41.7893 41.0391 41.4142 41.4141C41.0391 41.7892 40.5304 41.9999 40 41.9999H8C7.46957 41.9999 6.96086 41.7892 6.58579 41.4141C6.21071 41.0391 6 40.5304 6 39.9999V18.6279C5.99988 18.3258 6.0682 18.0276 6.19983 17.7557C6.33145 17.4838 6.52297 17.2452 6.76 17.0579L22.76 4.43592C23.1131 4.1569 23.55 4.00513 24 4.00513C24.45 4.00513 24.8869 4.1569 25.24 4.43592L41.24 17.0559C41.4773 17.2434 41.669 17.4823 41.8006 17.7546C41.9322 18.0269 42.0004 18.3255 42 18.6279V39.9999ZM14 23.9999C14 26.6521 15.0536 29.1956 16.9289 31.071C18.8043 32.9464 21.3478 33.9999 24 33.9999C26.6522 33.9999 29.1957 32.9464 31.0711 31.071C32.9464 29.1956 34 26.6521 34 23.9999H30C30 25.5912 29.3679 27.1173 28.2426 28.2426C27.1174 29.3678 25.5913 29.9999 24 29.9999C22.4087 29.9999 20.8826 29.3678 19.7574 28.2426C18.6321 27.1173 18 25.5912 18 23.9999H14Z" fill="#FEE5A2"/>
<path d="M14 24C14 26.6522 15.0536 29.1957 16.9289 31.0711C18.8043 32.9464 21.3478 34 24 34C26.6522 34 29.1957 32.9464 31.0711 31.0711C32.9464 29.1957 34 26.6522 34 24H30C30 25.5913 29.3679 27.1174 28.2426 28.2426C27.1174 29.3679 25.5913 30 24 30C22.4087 30 20.8826 29.3679 19.7574 28.2426C18.6321 27.1174 18 25.5913 18 24H14Z" fill="#FCBD16"/>
</g>
<defs>
<clipPath id="clip0_55_1082">
<rect width="48" height="48" fill="white"/>
</clipPath>
</defs>
</svg>
