<svg width="48" height="48" viewBox="0 0 48 48" fill="none" xmlns="http://www.w3.org/2000/svg">
<circle opacity="0.4" cx="28.1696" cy="13.8273" r="3.6618" fill="#FCBD16" stroke="#FCBD16" stroke-width="3.6618" stroke-linecap="round" stroke-linejoin="round"/>
<path opacity="0.4" d="M35.4921 8.33447C34.1659 8.33447 32.8396 8.81482 31.8613 9.7755" stroke="#FCBD16" stroke-width="3.6618" stroke-miterlimit="3.93356" stroke-linecap="round"/>
<path fill-rule="evenodd" clip-rule="evenodd" d="M22.6467 30.5114C24.29 30.5114 25.8322 30.0784 27.1654 29.3203C28.2145 30.07 29.4993 30.5112 30.8871 30.5112C34.4262 30.5112 37.2953 27.6422 37.2953 24.103C37.2953 20.6151 34.5086 17.778 31.0402 17.6967C29.6279 14.4626 26.4012 12.2024 22.6467 12.2024C18.8921 12.2024 15.6655 14.4627 14.2532 17.6967C10.7857 17.779 8 20.6157 8 24.103C8 27.6422 10.869 30.5112 14.4082 30.5112C15.7956 30.5112 17.0801 30.0703 18.129 29.3209C19.462 30.0786 21.0038 30.5114 22.6467 30.5114Z" fill="#FCBD16"/>
<path d="M27.1654 29.3203L27.657 28.6324C27.3889 28.4408 27.0339 28.4224 26.7474 28.5853L27.1654 29.3203ZM31.0402 17.6967L30.2653 18.035C30.397 18.3365 30.6915 18.5342 31.0204 18.5419L31.0402 17.6967ZM14.2532 17.6967L14.2733 18.542C14.602 18.5342 14.8964 18.3365 15.0281 18.0351L14.2532 17.6967ZM18.129 29.3209L18.5469 28.5859C18.2605 28.423 17.9056 28.4414 17.6376 28.6329L18.129 29.3209ZM26.7474 28.5853C25.5383 29.2729 24.1397 29.6659 22.6467 29.6659V31.3569C24.4404 31.3569 26.1261 30.8839 27.5833 30.0553L26.7474 28.5853ZM30.8871 29.6657C29.6813 29.6657 28.5674 29.283 27.657 28.6324L26.6738 30.0082C27.8616 30.857 29.3173 31.3567 30.8871 31.3567V29.6657ZM36.4498 24.103C36.4498 27.1752 33.9593 29.6657 30.8871 29.6657V31.3567C34.8932 31.3567 38.1408 28.1091 38.1408 24.103H36.4498ZM31.0204 18.5419C34.0307 18.6125 36.4498 21.0754 36.4498 24.103H38.1408C38.1408 20.1548 34.9864 16.9434 31.06 16.8514L31.0204 18.5419ZM22.6467 13.0479C26.0532 13.0479 28.9827 15.0979 30.2653 18.035L31.815 17.3583C30.2731 13.8273 26.7493 11.3569 22.6467 11.3569V13.0479ZM15.0281 18.0351C16.3107 15.0979 19.2402 13.0479 22.6467 13.0479V11.3569C18.5441 11.3569 15.0203 13.8274 13.4784 17.3584L15.0281 18.0351ZM8.8455 24.103C8.8455 21.0759 11.2636 18.6134 14.2733 18.542L14.2332 16.8515C10.3077 16.9446 7.1545 20.1555 7.1545 24.103H8.8455ZM14.4082 29.6657C11.336 29.6657 8.8455 27.1752 8.8455 24.103H7.1545C7.1545 28.1091 10.4021 31.3567 14.4082 31.3567V29.6657ZM17.6376 28.6329C16.7272 29.2832 15.6136 29.6657 14.4082 29.6657V31.3567C15.9776 31.3567 17.4329 30.8573 18.6205 30.0089L17.6376 28.6329ZM22.6467 29.6659C21.1541 29.6659 19.7558 29.2731 18.5469 28.5859L17.7112 30.0559C19.1682 30.8842 20.8535 31.3569 22.6467 31.3569V29.6659Z" fill="#FCBD16"/>
<path d="M13.998 33.546L13.4922 30.5111H31.8012L31.2954 33.546C30.8083 36.4687 30.5647 37.9301 29.5403 38.7978C28.516 39.6656 27.0345 39.6656 24.0714 39.6656H21.222C18.2589 39.6656 16.7774 39.6656 15.7531 38.7978C14.7287 37.9301 14.4851 36.4687 13.998 33.546Z" fill="#FCBD16" fill-opacity="0.4"/>
<path d="M13.4922 29.6656C13.2437 29.6656 13.0077 29.775 12.8471 29.9646C12.6864 30.1542 12.6173 30.405 12.6582 30.6501L13.164 33.685L13.1733 33.7405C13.4089 35.1547 13.5988 36.294 13.8637 37.1838C14.1388 38.1078 14.5217 38.8628 15.2065 39.443L15.7531 38.7978L15.2065 39.443C15.8914 40.0231 16.6991 40.2767 17.6558 40.3961C18.577 40.5112 19.732 40.5111 21.1657 40.5111H21.222H24.0714H24.1277C25.5614 40.5111 26.7164 40.5112 27.6376 40.3961C28.5943 40.2767 29.402 40.0231 30.0869 39.443C30.7717 38.8628 31.1546 38.1078 31.4297 37.1838C31.6946 36.294 31.8845 35.1547 32.1201 33.7406L32.1294 33.685L32.6352 30.6501C32.6761 30.405 32.607 30.1542 32.4463 29.9646C32.2857 29.775 32.0497 29.6656 31.8012 29.6656H13.4922Z" stroke="#FCBD16" stroke-opacity="0.4" stroke-width="1.69099" stroke-linecap="round" stroke-linejoin="round"/>
</svg>
