<svg width="48" height="48" viewBox="0 0 48 48" fill="none" xmlns="http://www.w3.org/2000/svg">
<path opacity="0.4" fill-rule="evenodd" clip-rule="evenodd" d="M37.9282 11.7C40.5682 12.9 42.2282 15.4 42.6282 18.74C42.7882 20 42.7482 21.34 42.5682 22.68C42.0082 26.7 40.0682 30.72 37.4882 32.74C35.5282 34.26 33.0282 35 30.4882 35.34C28.9482 35.56 27.3882 35.62 25.9282 35.62C25.4082 35.62 24.8882 35.62 24.3882 35.6C20.7082 35.5 16.0282 35.08 12.6482 32.68C8.10892 29.4605 8.628 22.6223 9.08794 16.563L9.08817 16.56C9.09408 16.4839 9.09999 16.4079 9.10589 16.3321C9.25969 14.3555 9.40595 12.4757 9.34817 10.8C9.42817 8.29999 6.82817 7.79999 6.52817 7.75999C5.72817 7.61999 5.16817 6.85999 5.28817 6.03999C5.42817 5.23999 6.18817 4.69999 6.98817 4.79999C8.86817 5.07999 12.3682 6.67999 12.3482 10.68C12.3482 10.7806 12.3499 10.881 12.3524 10.9814C12.362 11.373 12.6949 11.6855 13.0862 11.6682C16.9394 11.4922 20.7742 11.3169 24.6282 11.18C26.7882 11.1 28.9282 11.04 31.0882 11C31.2682 11 31.4432 10.995 31.6182 10.99C31.7932 10.985 31.9682 10.98 32.1482 10.98L32.2215 10.9776C34.0229 10.918 36.0339 10.8515 37.9282 11.7Z" fill="#FCBD16"/>
<path d="M14.2956 38.0342C12.8676 38.0342 11.7056 39.1942 11.7056 40.6222C11.7056 42.0502 12.8676 43.2122 14.2956 43.2122C15.7236 43.2122 16.8836 42.0502 16.8836 40.6222C16.8836 39.1942 15.7236 38.0342 14.2956 38.0342Z" fill="#FCBD16"/>
<path d="M34.9576 38.0342C33.5296 38.0342 32.3696 39.1942 32.3696 40.6222C32.3696 42.0502 33.5296 43.2122 34.9576 43.2122C36.3856 43.2122 37.5476 42.0502 37.5476 40.6222C37.5476 39.1942 36.3856 38.0342 34.9576 38.0342Z" fill="#FCBD16"/>
<path d="M25.7681 21.7803H31.3081C32.1481 21.7803 32.8081 21.1003 32.8081 20.2803C32.8081 19.4603 32.1481 18.7803 31.3081 18.7803H25.7681C24.9481 18.7803 24.2681 19.4603 24.2681 20.2803C24.2681 21.1003 24.9481 21.7803 25.7681 21.7803Z" fill="#FCBD16"/>
</svg>
