<svg width="48" height="48" viewBox="0 0 48 48" fill="none" xmlns="http://www.w3.org/2000/svg">
<path d="M8 18.6C8 18.3172 8 18.1757 8.08787 18.0879C8.17574 18 8.31716 18 8.6 18H39.4C39.6828 18 39.8243 18 39.9121 18.0879C40 18.1757 40 18.3172 40 18.6V32C40 35.7712 40 37.6569 38.8284 38.8284C37.6569 40 35.7712 40 32 40H16C12.2288 40 10.3431 40 9.17157 38.8284C8 37.6569 8 35.7712 8 32V18.6Z" fill="#FCBD16" fill-opacity="0.4"/>
<path d="M9.44853 16C8.83205 16 8.52381 16 8.4471 15.8148C8.37039 15.6296 8.58835 15.4117 9.02426 14.9757L11.6569 12.3431C12.813 11.187 13.391 10.609 14.1261 10.3045C14.8612 10 15.6787 10 17.3137 10H30.6863C32.3213 10 33.1388 10 33.8739 10.3045C34.609 10.609 35.187 11.187 36.3431 12.3431L38.9757 14.9757C39.4117 15.4117 39.6296 15.6296 39.5529 15.8148C39.4762 16 39.1679 16 38.5515 16H9.44853Z" fill="#FCBD16" fill-opacity="0.4"/>
<path d="M18 18.3C18 18.1343 18.1343 18 18.3 18H29.7C29.8657 18 30 18.1343 30 18.3V28.1315C30 28.9302 29.1099 29.4066 28.4453 28.9635L25.1094 26.7396C24.4376 26.2917 23.5624 26.2917 22.8906 26.7396L19.5547 28.9635C18.8901 29.4066 18 28.9302 18 28.1315V18.3Z" fill="#FCBD16"/>
</svg>
