<svg width="48" height="48" viewBox="0 0 48 48" fill="none" xmlns="http://www.w3.org/2000/svg">
<path d="M20.7532 9.93588C22.054 7.7244 22.7045 6.61866 23.6355 6.45056C23.8778 6.40681 24.1259 6.40681 24.3682 6.45056C25.2993 6.61866 25.9497 7.7244 27.2506 9.93587L30.6902 15.7833C33.0941 19.8699 34.9698 24.2451 36.2723 28.8039C38.389 36.2121 32.8264 43.5865 25.1218 43.5865H22.882C15.1773 43.5865 9.61479 36.2121 11.7314 28.8039C13.0339 24.2451 14.9096 19.8699 17.3135 15.7833L20.7532 9.93588Z" fill="#FCBD16" fill-opacity="0.4"/>
<path d="M23.4579 5.46647C22.621 5.61757 22.03 6.18101 21.5405 6.81711C21.0607 7.44064 20.5468 8.31434 19.9259 9.36989L19.8912 9.42886L16.4516 15.2763C14.0048 19.4358 12.0956 23.889 10.7699 28.5292C8.47075 36.5761 14.513 44.5865 22.882 44.5865H25.1218C33.4908 44.5865 39.533 36.5761 37.2339 28.5292C35.9081 23.889 33.999 19.4358 31.5522 15.2763L28.1125 9.42885L28.0778 9.36988C27.4569 8.31433 26.943 7.44064 26.4632 6.81711C25.9738 6.18101 25.3828 5.61757 24.5459 5.46647C24.1861 5.40151 23.8176 5.40151 23.4579 5.46647Z" stroke="#FCBD16" stroke-opacity="0.4" stroke-width="2"/>
<path d="M24.0024 37.4013C23.0947 37.4013 22.2123 37.1018 21.4922 36.5492C20.772 35.9966 20.2543 35.2219 20.0194 34.3451" stroke="#FCBD16" stroke-width="4.12351" stroke-linecap="round"/>
</svg>
