<svg width="48" height="48" viewBox="0 0 48 48" fill="none" xmlns="http://www.w3.org/2000/svg">
<path d="M23.036 27.4711H20.3937C17.6776 27.4711 16.3196 27.4711 15.7508 26.5811C15.182 25.691 15.7526 24.4586 16.8937 21.9938L22.161 10.6164C22.8826 9.05777 23.2434 8.27843 23.6218 8.36178C24.0002 8.44512 24.0002 9.30393 24.0002 11.0215V19.5644C24.0002 20.0189 24.0002 20.2462 24.1415 20.3874C24.2827 20.5286 24.5099 20.5286 24.9645 20.5286H27.6067C30.3229 20.5286 31.6809 20.5286 32.2497 21.4187C32.8184 22.3088 32.2479 23.5412 31.1068 26.006L25.8395 37.3833C25.1179 38.942 24.7571 39.7213 24.3787 39.638C24.0002 39.5546 24.0002 38.6958 24.0002 36.9782V28.4354C24.0002 27.9808 24.0002 27.7535 23.859 27.6123C23.7178 27.4711 23.4906 27.4711 23.036 27.4711Z" fill="#FCBD16" fill-opacity="0.4"/>
<path d="M20.3937 28.4711H23.0002V36.9782L23.0002 37.0419C23.0002 37.8464 23.0002 38.5341 23.0533 39.0279C23.08 39.2765 23.1284 39.5715 23.2469 39.8368C23.3755 40.1245 23.6496 40.5014 24.1636 40.6146C24.6775 40.7278 25.0846 40.5009 25.3222 40.2939C25.5412 40.103 25.709 39.8555 25.8377 39.6412C26.0934 39.2154 26.3822 38.5913 26.7202 37.8612L26.747 37.8034L32.0142 26.4261L32.0483 26.3526C32.5898 25.1829 33.0435 24.2031 33.2787 23.4042C33.5237 22.5723 33.6088 21.6884 33.0923 20.8802C32.5759 20.0721 31.738 19.778 30.8802 19.6507C30.0564 19.5285 28.9767 19.5286 27.6877 19.5286L27.6067 19.5286H25.0002V11.0215L25.0002 10.9578C25.0003 10.1533 25.0003 9.46566 24.9472 8.97188C24.9205 8.72327 24.8721 8.42822 24.7536 8.16297C24.625 7.87524 24.3509 7.49838 23.8369 7.38518C23.323 7.27199 22.9159 7.49881 22.6783 7.70589C22.4593 7.89679 22.2915 8.14423 22.1628 8.3586C21.9071 8.78437 21.6183 9.40842 21.2803 10.1385L21.2535 10.1963L15.9862 21.5737L15.9522 21.6471C15.4106 22.8168 14.957 23.7966 14.7218 24.5955C14.4768 25.4274 14.3917 26.3113 14.9082 27.1195C15.4246 27.9277 16.2625 28.2218 17.1203 28.349C17.944 28.4712 19.0238 28.4712 20.3128 28.4711L20.3937 28.4711ZM22.9911 28.0369C22.9911 28.0369 22.9912 28.0375 22.9914 28.0386L22.9911 28.0369ZM25.0094 19.9629C25.0094 19.9628 25.0093 19.9623 25.0091 19.9613L25.0094 19.9629Z" stroke="#FCBD16" stroke-opacity="0.4" stroke-width="2"/>
<mask id="mask0_44_386" style="mask-type:alpha" maskUnits="userSpaceOnUse" x="13" y="6" width="22" height="36">
<path d="M20.3942 28.4712H23.0007V36.9783L23.0007 37.042C23.0007 37.8466 23.0007 38.5342 23.0538 39.028C23.0805 39.2766 23.1289 39.5717 23.2474 39.8369C23.376 40.1246 23.6501 40.5015 24.164 40.6147C24.678 40.7279 25.0851 40.5011 25.3226 40.294C25.5417 40.1031 25.7095 39.8556 25.8382 39.6413C26.0938 39.2155 26.3827 38.5914 26.7207 37.8614L26.7474 37.8036L32.0147 26.4262L32.0487 26.3528C32.5903 25.183 33.044 24.2032 33.2792 23.4044C33.5241 22.5725 33.6092 21.6885 33.0928 20.8804C32.5764 20.0722 31.7385 19.7781 30.8807 19.6508C30.0569 19.5287 28.9772 19.5287 27.6882 19.5288L27.6072 19.5288H25.0007V11.0217L25.0007 10.958C25.0008 10.1534 25.0008 9.46578 24.9477 8.972C24.921 8.7234 24.8726 8.42834 24.7541 8.16309C24.6255 7.87536 24.3514 7.4985 23.8374 7.38531C23.3235 7.27211 22.9164 7.49894 22.6788 7.70601C22.4598 7.89691 22.292 8.14435 22.1633 8.35872C21.9076 8.7845 21.6187 9.40854 21.2808 10.1386L21.254 10.1964L15.9867 21.5738L15.9527 21.6472C15.4111 22.8169 14.9575 23.7968 14.7223 24.5956C14.4773 25.4275 14.3922 26.3115 14.9086 27.1196C15.4251 27.9278 16.2629 28.2219 17.1208 28.3492C17.9445 28.4713 19.0243 28.4713 20.3133 28.4712L20.3942 28.4712ZM22.9916 28.037C22.9916 28.037 22.9917 28.0376 22.9919 28.0387L22.9916 28.037ZM25.0099 19.963C25.0099 19.9629 25.0098 19.9624 25.0096 19.9614L25.0099 19.963Z" fill="#FCBD16" stroke="#FCBD16" stroke-width="2"/>
</mask>
<g mask="url(#mask0_44_386)">
<path d="M26.7614 8.18677L23.8981 3.45972H11.4951V30.0248H21.7905L26.0466 18.4924L26.7614 8.18677Z" fill="#FCBD16"/>
</g>
</svg>
