<svg width="50" height="48" viewBox="0 0 50 48" fill="none" xmlns="http://www.w3.org/2000/svg">
<path fill-rule="evenodd" clip-rule="evenodd" d="M37.8901 21.7371H37.9301C42.1901 21.7371 45.6701 18.2571 45.6701 14.0171C45.6701 9.7571 42.1901 6.2771 37.9301 6.2771C37.0901 6.2771 36.2901 6.4171 35.5301 6.6571C36.9101 8.6971 37.7101 11.1571 37.7101 13.8171C37.7301 16.5171 36.8901 19.1171 35.3101 21.2771C36.1301 21.5771 36.9901 21.7371 37.8901 21.7371Z" fill="#FCBD16"/>
<path fill-rule="evenodd" clip-rule="evenodd" d="M12.0501 21.7371H12.1101C13.0101 21.7371 13.8701 21.5771 14.6901 21.2771C13.1701 19.1971 12.2701 16.6171 12.2701 13.8171C12.2701 11.1571 13.0701 8.6971 14.4501 6.6571C13.6901 6.4171 12.8901 6.2771 12.0501 6.2771C7.79008 6.2771 4.33008 9.7571 4.33008 14.0171C4.33008 18.2571 7.79008 21.7371 12.0501 21.7371Z" fill="#FCBD16"/>
<path fill-rule="evenodd" clip-rule="evenodd" d="M24.9913 23.5493H25.0573C27.6473 23.5413 30.0793 22.5233 31.9033 20.6853C33.7293 18.8473 34.7293 16.4093 34.7193 13.8233C34.7193 8.45726 30.3573 4.09326 24.9913 4.09326C19.6273 4.09326 15.2653 8.45726 15.2653 13.8233C15.2653 19.1853 19.6273 23.5493 24.9913 23.5493Z" fill="#FCBD16"/>
<g opacity="0.4">
<path fill-rule="evenodd" clip-rule="evenodd" d="M37.9503 24.6167C35.6703 24.6167 33.5303 25.0767 31.7303 25.8567C38.0303 27.6767 42.4903 32.0367 42.6103 37.1367C45.8903 36.7167 49.4303 35.4767 49.4303 32.0967C49.4303 28.0367 44.1703 24.6167 37.9503 24.6167Z" fill="#FCBD16"/>
<path fill-rule="evenodd" clip-rule="evenodd" d="M18.2503 25.8367C16.4503 25.0767 14.3103 24.6167 12.0503 24.6167C5.83031 24.6167 0.570312 28.0367 0.570312 32.0967C0.570312 35.4767 4.09031 36.6967 7.37031 37.1367C7.47031 32.0367 11.9303 27.6767 18.2503 25.8367Z" fill="#FCBD16"/>
<path fill-rule="evenodd" clip-rule="evenodd" d="M24.9895 27.8907C17.0675 27.8907 10.3735 32.2027 10.3735 37.3067C10.3735 43.9067 21.3735 43.9067 24.9895 43.9067C31.2655 43.9067 39.6095 43.2267 39.6095 37.3487C39.6095 32.2207 32.9135 27.8907 24.9895 27.8907Z" fill="#FCBD16"/>
</g>
</svg>
