<svg width="48" height="48" viewBox="0 0 48 48" fill="none" xmlns="http://www.w3.org/2000/svg">
<path opacity="0.4" fill-rule="evenodd" clip-rule="evenodd" d="M39.3754 9.65102C38.1634 8.43702 31.5074 4.14502 23.9994 4.14502C16.4874 4.14502 9.83538 8.43702 8.62338 9.65102C7.46138 10.815 7.47938 11.721 7.56738 16.749C7.60538 18.789 7.65538 21.565 7.65538 25.401C7.65538 38.441 18.2994 43.855 23.9994 43.855C29.6974 43.855 40.3434 38.441 40.3434 25.401C40.3434 21.563 40.3934 18.785 40.4314 16.747C40.5214 11.719 40.5374 10.815 39.3754 9.65102Z" fill="#FCBD16"/>
<path d="M23.646 28.2408L31.442 20.4428C32.028 19.8568 32.028 18.9068 31.442 18.3208C30.856 17.7348 29.906 17.7348 29.32 18.3208L22.586 25.0588L19.862 22.3308C19.276 21.7448 18.326 21.7448 17.742 22.3308C17.154 22.9148 17.154 23.8668 17.74 24.4528L21.524 28.2408C21.806 28.5228 22.188 28.6808 22.586 28.6808C22.984 28.6808 23.364 28.5228 23.646 28.2408Z" fill="#FCBD16"/>
</svg>
