<svg width="2076" height="278" viewBox="0 0 2076 278" fill="none" xmlns="http://www.w3.org/2000/svg">
<g clip-path="url(#clip0_2268_10)">
<g opacity="0.5">
<path d="M62.9537 6.24598C90.8785 6.24598 115.004 10.8068 135.52 20.1185C156.036 29.4303 171.993 42.5428 183.011 59.8361C194.219 76.9394 199.728 97.2731 199.728 120.457C199.728 143.642 194.219 163.786 183.011 180.699C171.803 197.802 156.036 210.915 135.52 220.036C115.004 229.348 90.6885 233.909 62.9537 233.909H9.19373V314.484H-78V165.116H57.6346C75.4912 165.116 88.9788 161.315 98.0971 153.524C107.215 145.732 111.775 134.71 111.775 120.268C111.775 105.825 107.215 94.8027 98.0971 86.8212C88.9788 78.8397 75.4912 74.849 57.6346 74.849H-78V6.05591H62.9537V6.24598Z" fill="#F0F4F4"/>
<path d="M419.501 254.644H289.185L265.06 314.505H176.156L312.171 6.2666H398.035L534.429 314.505H443.816L419.691 254.644H419.501ZM394.045 190.411L354.343 91.7828L314.64 190.411H393.855H394.045Z" fill="#F0F4F4"/>
<path d="M698.952 320.781C666.658 320.781 637.783 313.939 611.948 300.257C586.303 286.574 566.166 267.571 551.349 243.246C536.722 218.921 529.313 191.366 529.313 160.39C529.313 129.415 536.722 102.049 551.349 77.5347C565.976 53.2101 586.113 34.2065 611.948 20.5239C637.593 6.84133 666.658 0 698.952 0C727.066 0 752.521 4.94095 775.127 15.0129C797.733 25.0848 816.539 39.3374 831.547 58.151L776.077 108.32C756.131 84.1859 731.815 72.2137 703.511 72.2137C686.794 72.2137 671.977 75.8243 658.869 83.2357C645.761 90.6471 635.694 100.909 628.475 114.212C621.256 127.514 617.647 142.907 617.647 160.2C617.647 177.494 621.256 192.886 628.475 206.189C635.694 219.491 645.761 229.943 658.869 237.165C671.977 244.576 686.794 248.187 703.511 248.187C732.005 248.187 756.131 236.215 776.077 212.08L831.547 262.25C816.539 281.063 797.733 295.506 775.127 305.388C752.521 315.46 727.066 320.401 698.952 320.401V320.781Z" fill="#F0F4F4"/>
<path d="M1020.93 320.781C988.637 320.781 959.762 313.939 933.927 300.257C908.282 286.574 888.146 267.571 873.329 243.246C858.702 218.921 851.293 191.366 851.293 160.39C851.293 129.415 858.702 102.049 873.329 77.5347C887.956 53.2101 908.092 34.2065 933.927 20.5239C959.572 6.84133 988.637 0 1020.93 0C1049.05 0 1074.5 4.94095 1097.11 15.0129C1119.71 25.0848 1138.52 39.3374 1153.53 58.151L1098.06 108.32C1078.11 84.1859 1053.98 72.2137 1025.49 72.2137C1008.77 72.2137 993.956 75.8243 980.849 83.2357C967.741 90.6471 957.673 100.909 950.454 114.212C943.236 127.514 939.626 142.907 939.626 160.2C939.626 177.494 943.236 192.886 950.454 206.189C957.673 219.491 967.741 229.943 980.849 237.165C993.956 244.576 1008.77 248.187 1025.49 248.187C1053.98 248.187 1078.11 236.215 1098.06 212.08L1153.53 262.25C1138.52 281.063 1119.71 295.506 1097.11 305.388C1074.5 315.46 1049.05 320.401 1020.93 320.401V320.781Z" fill="#F0F4F4"/>
<path d="M1417.01 153.353C1435.24 159.244 1449.11 168.366 1458.61 180.718C1468.11 193.07 1472.86 208.273 1472.86 226.517C1472.86 253.882 1462.22 275.356 1440.94 291.129C1419.67 306.902 1389.46 314.693 1350.52 314.693H1192.47V129.788H1333.8C1358.5 129.788 1370.85 119.716 1370.85 99.3824C1370.85 79.0486 1358.5 68.9767 1333.8 68.9767H1192.47V6.45483H1342.16C1379.21 6.45483 1407.89 13.4863 1428.22 27.3589C1448.54 41.2315 1458.8 60.9952 1458.8 86.65C1458.8 101.663 1455.19 114.775 1447.97 126.368C1440.75 137.77 1430.5 146.891 1417.01 153.733V153.353ZM1347.1 251.981C1372.37 251.981 1384.9 241.339 1384.9 219.865C1384.9 198.391 1372.37 188.509 1347.1 188.509H1278.33V251.981H1347.1Z" fill="#F0F4F4"/>
<path d="M1762.36 247.232V314.695H1515.03V125.799H1738.23V190.982H1601.27V247.422H1762.36V247.232ZM1515.03 73.7293V6.2666H1756.66V73.7293H1515.03Z" fill="#F0F4F4"/>
<path d="M2076 75.4397H1981.78V314.695H1895.91V75.4397H1801.31V6.2666H2076V75.4397Z" fill="#F0F4F4"/>
</g>
</g>
<defs>
<clipPath id="clip0_2268_10">
<rect width="2076" height="278" fill="white"/>
</clipPath>
</defs>
</svg>
