<svg version="1.1" xmlns="http://www.w3.org/2000/svg" xmlns:xlink="http://www.w3.org/1999/xlink">

    <symbol viewBox="0 0 16 16" id="icon-phone">
        <path d="M11 10C10 11 10 12 9 12C8 12 7 11 6 10C5 9 4 8 4 7C4 6 5 6 6 5C7 4 4 1 3 1C2 1 0 4 0 4C0 6 2.055 10.055 4 12C5.945 13.945 10 16 12 16C12 16 15 14 15 13C15 12 12 9 11 10Z" />
    </symbol>

    <symbol viewBox="0 0 32 32" id="header-menu-link">
        <path d="M4 5.3335H28V8.00016H4V5.3335ZM8 14.6668H24V17.3335H8V14.6668ZM4 24.0002H28V26.6668H4V24.0002Z" />
    </symbol>

    <symbol viewBox="0 0 32 32" id="header-menu-close">
        <path d="M16 14.1151L22.6 7.51514L24.4853 9.40047L17.8853 16.0005L24.4853 22.6005L22.6 24.4858L16 17.8858L9.39998 24.4858L7.51465 22.6005L14.1146 16.0005L7.51465 9.40047L9.39998 7.51514L16 14.1151Z" />
    </symbol>

    <symbol viewBox="0 0 32 32" id="icon-download">
        <path d="M4 25.3333H28V27.9999H4V25.3333ZM17.3333 11.9999H26.6667L16 22.6666L5.33333 11.9999H14.6667V1.33325H17.3333V11.9999Z" />
    </symbol>

    <symbol viewBox="0 0 24 24" id="icon-download-2">
        <path d="M4 19H20V12H22V20C22 20.2652 21.8946 20.5196 21.7071 20.7071C21.5196 20.8946 21.2652 21 21 21H3C2.73478 21 2.48043 20.8946 2.29289 20.7071C2.10536 20.5196 2 20.2652 2 20V12H4V19ZM14 9H19L12 16L5 9H10V3H14V9Z" />
    </symbol>

    <symbol viewBox="0 0 24 24" id="presentation-prev">
        <path d="M11.828 11.9999L14.657 9.17192L13.243 7.75692L9 11.9999L13.243 16.2429L14.657 14.8279L11.828 11.9999Z" />
    </symbol>

    <symbol viewBox="0 0 24 24" id="presentation-next">
        <path d="M12.172 11.9999L9.343 9.17192L10.757 7.75692L15 11.9999L10.757 16.2429L9.343 14.8279L12.172 11.9999Z" />
    </symbol>

    <symbol viewBox="0 0 32 32" id="location-zoom-inc">
        <path d="M14.6665 14.6667V6.66675H17.3332V14.6667H25.3332V17.3334H17.3332V25.3334H14.6665V17.3334H6.6665V14.6667H14.6665Z" />
    </symbol>

    <symbol viewBox="0 0 32 32" id="location-zoom-dec">
        <path d="M6.6665 14.6667H25.3332V17.3334H6.6665V14.6667Z" />
    </symbol>

    <symbol viewBox="0 0 32 32" id="swiper-prev">
        <path d="M14.4372 16L21.0372 9.39998L19.1518 7.51465L10.6665 16L19.1518 24.4853L21.0372 22.6L14.4372 16Z" />
    </symbol>

    <symbol viewBox="0 0 32 32" id="swiper-next">
        <path d="M17.5628 16L10.9628 9.39998L12.8482 7.51465L21.3335 16L12.8482 24.4853L10.9628 22.6L17.5628 16Z" />
    </symbol>

    <symbol viewBox="0 0 36 36" id="telegram">
        <path d="M15.1465 25.2992C15.5833 25.2992 15.7762 25.095 16.0201 24.8528L18.3497 22.5378L15.4438 20.7471" />
        <path d="M15.4434 20.7475L22.4847 26.0639C23.2883 26.517 23.868 26.2823 24.0682 25.3016L26.9344 11.4988C27.2278 10.2966 26.486 9.75107 25.7172 10.1077L8.88706 16.7397C7.73826 17.2107 7.7451 17.8657 8.67768 18.1575L12.9967 19.5352L22.9956 13.0886C23.4676 12.796 23.901 12.9532 23.5454 13.2757" />
    </symbol>

    <symbol viewBox="0 0 36 36" id="vk">
        <path d="M18.9142 23.9502C12.8336 23.9502 9.14454 19.7236 9 12.7002H12.0796C12.1756 17.8594 14.5185 20.0457 16.3146 20.4952V12.7002H19.2658V17.1526C20.9982 16.9603 22.8115 14.9351 23.4209 12.7002H26.3258C25.8609 15.4484 23.8869 17.4736 22.4922 18.309C23.888 18.9844 26.1338 20.7524 27 23.9502H23.8071C23.1329 21.8126 21.4815 20.157 19.2669 19.9322V23.9502H18.9142Z" />
    </symbol>

    <symbol viewBox="0 0 36 36" id="dzen">
        <path d="M27.0236 17.3179C27.0251 17.3179 27.0263 17.3179 27.0278 17.3179C27.1338 17.3179 27.2349 17.2734 27.3067 17.1955C27.3797 17.1165 27.4158 17.0105 27.4063 16.9033C27.0247 12.707 23.7024 9.3835 19.5057 9.00122C19.3993 8.99286 19.2921 9.02744 19.2131 9.10078C19.134 9.17374 19.09 9.27672 19.0911 9.38426C19.1572 14.9611 19.8929 17.24 27.0236 17.3179ZM27.0236 18.0885C19.8929 18.1664 19.1576 20.4453 19.0915 26.0222C19.0903 26.1297 19.1344 26.2327 19.2135 26.3057C19.2841 26.3706 19.3765 26.4067 19.4715 26.4067C19.4829 26.4067 19.4947 26.4064 19.5061 26.4052C23.7028 26.0229 27.0251 22.6998 27.4063 18.5031C27.4158 18.396 27.38 18.2899 27.3067 18.2109C27.2334 18.1319 27.1311 18.0927 27.0236 18.0885ZM17.8766 9.00312C13.6932 9.39642 10.3815 12.7191 10.0019 16.9041C9.99237 17.0112 10.0281 17.1173 10.1014 17.1963C10.1733 17.2742 10.2747 17.3183 10.3804 17.3183C10.3819 17.3183 10.3834 17.3183 10.3849 17.3183C17.4921 17.2366 18.2258 14.9589 18.2927 9.38578C18.2939 9.27824 18.2494 9.17488 18.1704 9.10192C18.0906 9.02896 17.9838 8.99324 17.8766 9.00312ZM10.3845 18.0882C10.2664 18.0749 10.1736 18.1311 10.1011 18.2101C10.0281 18.2892 9.99199 18.3952 10.0015 18.5024C10.3811 22.6873 13.6932 26.01 17.8766 26.4033C17.8884 26.4045 17.9006 26.4048 17.9123 26.4048C18.0073 26.4048 18.0993 26.3691 18.17 26.3041C18.249 26.2312 18.2935 26.1278 18.2923 26.0203C18.2255 20.4476 17.4921 18.1699 10.3845 18.0882Z" />
    </symbol>

    <symbol viewBox="0 0 36 36" id="ok">
        <path d="M18.0094 16.2877C18.9643 16.2842 19.7248 15.5172 19.7213 14.5602C19.7179 13.6029 18.9557 12.8412 18.0004 12.8403C17.0371 12.8393 16.2678 13.6152 16.2752 14.5811C16.2824 15.5346 17.0515 16.2912 18.0094 16.2877Z" />
        <path d="M18 8C12.4771 8 8 12.4773 8 18C8 23.5227 12.4771 28 18 28C23.5229 28 28 23.5227 28 18C28 12.4773 23.5229 8 18 8ZM18.0143 11.041C19.9621 11.0463 21.5255 12.6396 21.5155 14.6089C21.5057 16.5328 19.9167 18.0921 17.9722 18.0855C16.0475 18.079 14.469 16.4833 14.4804 14.5555C14.4913 12.6066 16.0706 11.0357 18.0143 11.041ZM21.9595 19.4695C21.5288 19.9116 21.0103 20.2316 20.4346 20.4548C19.8903 20.6658 19.2939 20.772 18.7034 20.8428C18.7928 20.9397 18.8348 20.9874 18.8904 21.0431C19.6917 21.8486 20.4968 22.65 21.2953 23.4578C21.5675 23.7332 21.6241 24.0745 21.4744 24.3943C21.3109 24.7441 20.944 24.9741 20.5841 24.9494C20.3562 24.9336 20.1784 24.8205 20.0207 24.6615C19.4159 24.053 18.7996 23.4553 18.2075 22.8354C18.0346 22.6549 17.9519 22.6893 17.7995 22.846C17.1912 23.4725 16.5729 24.089 15.9511 24.7022C15.6718 24.9776 15.3395 25.0275 15.0154 24.87C14.6711 24.7034 14.4522 24.3517 14.469 23.998C14.4808 23.7594 14.5983 23.5765 14.7624 23.4132C15.5556 22.6216 16.3464 21.8275 17.1374 21.0341C17.19 20.9815 17.2387 20.9256 17.315 20.8438C16.2361 20.731 15.2632 20.4655 14.4303 19.8142C14.3268 19.7332 14.2202 19.655 14.126 19.5642C13.7612 19.2141 13.7246 18.8129 14.0129 18.4C14.2598 18.0464 14.674 17.9519 15.1047 18.1551C15.1881 18.1942 15.2675 18.2437 15.3436 18.2961C16.8958 19.3627 19.0281 19.3919 20.5864 18.3437C20.7407 18.2259 20.9058 18.1289 21.0971 18.08C21.4686 17.9842 21.8157 18.1211 22.0149 18.4464C22.2431 18.8182 22.2404 19.1808 21.9595 19.4695Z" />
    </symbol>

    <symbol viewBox="0 0 32 32" id="window-close">
        <path d="M16 14.1151L22.6 7.51514L24.4853 9.40047L17.8853 16.0005L24.4853 22.6005L22.6 24.4858L16 17.8858L9.39998 24.4858L7.51465 22.6005L14.1146 16.0005L7.51465 9.40047L9.39998 7.51514L16 14.1151Z" />
    </symbol>

    <symbol viewBox="0 0 24 24" id="select-filter-header-mobile-link">
        <path d="M12.0001 12.172L14.8281 9.343L16.2431 10.757L12.0001 15L7.75708 10.757L9.17208 9.343L12.0001 12.172Z" />
    </symbol>

    <symbol viewBox="0 0 24 24" id="select-filter-clear">
        <path d="M12 10.5862L16.95 5.63623L18.364 7.05023L13.414 12.0002L18.364 16.9502L16.95 18.3642L12 13.4142L7.04999 18.3642L5.63599 16.9502L10.586 12.0002L5.63599 7.05023L7.04999 5.63623L12 10.5862Z" />
    </symbol>

</svg>