<svg width="710" height="262" viewBox="0 0 710 262" fill="none" xmlns="http://www.w3.org/2000/svg">
<g opacity="0.5">
<path d="M140.954 6.24574C168.878 6.24574 193.004 10.8065 213.52 20.1183C234.036 29.43 249.993 42.5426 261.011 59.8359C272.219 76.9391 277.728 97.2729 277.728 120.457C277.728 143.642 272.219 163.786 261.011 180.699C249.803 197.802 234.036 210.914 213.52 220.036C193.004 229.348 168.688 233.909 140.954 233.909H87.1937V314.484H0V165.116H135.635C153.491 165.116 166.979 161.315 176.097 153.524C185.215 145.732 189.775 134.71 189.775 120.267C189.775 105.825 185.215 94.8025 176.097 86.821C166.979 78.8394 153.491 74.8487 135.635 74.8487H0V6.05566H140.954V6.24574Z" fill="#F0F4F4"/>
<path d="M497.501 254.644H367.185L343.06 314.505H254.156L390.171 6.2666H476.035L612.429 314.505H521.816L497.691 254.644H497.501ZM472.045 190.411L432.343 91.7828L392.64 190.411H471.855H472.045Z" fill="#F0F4F4"/>
<path d="M776.952 320.781C744.658 320.781 715.783 313.939 689.948 300.257C664.303 286.574 644.166 267.571 629.349 243.246C614.722 218.921 607.314 191.366 607.314 160.39C607.314 129.415 614.722 102.049 629.349 77.5347C643.977 53.2101 664.113 34.2065 689.948 20.5239C715.593 6.84133 744.658 0 776.952 0C805.066 0 830.522 4.94095 853.127 15.0129C875.733 25.0848 894.54 39.3374 909.547 58.151L854.077 108.32C834.131 84.1859 809.816 72.2137 781.511 72.2137C764.794 72.2137 749.977 75.8243 736.869 83.2357C723.762 90.6471 713.694 100.909 706.475 114.212C699.256 127.514 695.647 142.907 695.647 160.2C695.647 177.494 699.256 192.886 706.475 206.189C713.694 219.492 723.762 229.943 736.869 237.165C749.977 244.576 764.794 248.187 781.511 248.187C810.006 248.187 834.131 236.215 854.077 212.08L909.547 262.25C894.54 281.063 875.733 295.506 853.127 305.388C830.522 315.46 805.066 320.401 776.952 320.401V320.781Z" fill="#F0F4F4"/>
</g>
</svg>
